<svg width="42" height="23" viewBox="0 0 42 23" fill="none" xmlns="http://www.w3.org/2000/svg">
<path d="M10.9389 22.9749L10.4801 22.3417C10.4217 22.348 10.3773 22.3501 10.3459 22.3501H9.82219V22.9749H9.5192V20.916H10.3459C10.6197 20.916 10.8361 20.981 10.9952 21.1089C11.1532 21.2347 11.2333 21.4098 11.2333 21.6331C11.2333 21.7924 11.1922 21.9287 11.1121 22.0398C11.0309 22.152 10.9151 22.2327 10.7658 22.283L11.2679 22.9749H10.9389ZM10.3373 22.0985C10.5277 22.0985 10.6727 22.0597 10.7745 21.9811C10.8783 21.9004 10.9303 21.784 10.9303 21.6331C10.9303 21.4852 10.8783 21.372 10.7745 21.2934C10.6727 21.2127 10.5277 21.1718 10.3373 21.1718H9.82219V22.0985H10.3373Z" fill="#F4932D"/>
<path d="M13.2668 22.7191V22.9749H11.7259V20.916H13.2235V21.1718H12.0289V21.805H13.0937V22.0566H12.0289V22.7191H13.2668Z" fill="#F4932D"/>
<path d="M15.729 22.9749L15.7247 21.4737L14.9585 22.7233H14.8157L14.0496 21.4863V22.9749H13.7596V20.916H14.0063L14.8936 22.3627L15.768 20.916H16.0147L16.019 22.9749H15.729Z" fill="#F4932D"/>
<path d="M17.6149 23C17.4006 23 17.208 22.9539 17.0349 22.8616C16.8639 22.7694 16.7297 22.6436 16.6323 22.4842C16.5339 22.3228 16.4852 22.1435 16.4852 21.9475C16.4852 21.7494 16.5339 21.5701 16.6323 21.4108C16.7297 21.2493 16.8639 21.1235 17.0349 21.0334C17.208 20.9411 17.4006 20.895 17.6149 20.895C17.8281 20.895 18.0196 20.9411 18.1906 21.0334C18.3637 21.1235 18.4979 21.2472 18.5931 21.4066C18.6905 21.5659 18.7403 21.7462 18.7403 21.9475C18.7403 22.1467 18.6905 22.3249 18.5931 22.4842C18.4979 22.6436 18.3637 22.7694 18.1906 22.8616C18.0196 22.9539 17.8281 23 17.6149 23ZM17.6149 22.7358C17.7707 22.7358 17.9103 22.7023 18.0348 22.6352C18.1581 22.566 18.2566 22.4706 18.3291 22.3501C18.4005 22.2306 18.4373 22.0964 18.4373 21.9475C18.4373 21.7966 18.4005 21.6613 18.3291 21.5408C18.2566 21.4213 18.1581 21.3269 18.0348 21.2598C17.9103 21.1906 17.7707 21.155 17.6149 21.155C17.4591 21.155 17.3173 21.1906 17.1907 21.2598C17.0663 21.3269 16.9678 21.4213 16.8964 21.5408C16.8239 21.6613 16.7882 21.7966 16.7882 21.9475C16.7882 22.0964 16.8239 22.2306 16.8964 22.3501C16.9678 22.4706 17.0663 22.566 17.1907 22.6352C17.3173 22.7023 17.4591 22.7358 17.6149 22.7358Z" fill="#F4932D"/>
<path d="M19.208 20.916H20.0996C20.3247 20.916 20.5238 20.96 20.697 21.046C20.8723 21.133 21.0086 21.2546 21.1038 21.4108C21.1991 21.5649 21.2467 21.7442 21.2467 21.9475C21.2467 22.1488 21.1991 22.3281 21.1038 22.4843C21.0086 22.6384 20.8723 22.7589 20.697 22.8449C20.5238 22.9319 20.3247 22.9749 20.0996 22.9749H19.208V20.916ZM20.0823 22.7191C20.2555 22.7191 20.407 22.6876 20.5368 22.6227C20.6667 22.5587 20.7662 22.4675 20.8355 22.3501C20.9069 22.2327 20.9437 22.0985 20.9437 21.9475C20.9437 21.7945 20.9069 21.6603 20.8355 21.545C20.7662 21.4276 20.6667 21.3374 20.5368 21.2724C20.407 21.2053 20.2555 21.1718 20.0823 21.1718H19.511V22.7191H20.0823Z" fill="#F4932D"/>
<path d="M23.2561 22.7191V22.9749H21.7151V20.916H23.2128V21.1718H22.0181V21.805H23.0829V22.0566H22.0181V22.7191H23.2561Z" fill="#F4932D"/>
<path d="M23.7488 20.916H24.0518V22.7191H25.1989V22.9749H23.7488V20.916Z" fill="#F4932D"/>
<path d="M25.5518 20.916H25.8548V22.9749H25.5518V20.916Z" fill="#F4932D"/>
<path d="M28.3194 20.916V22.9749H28.0683L26.7958 21.4402V22.9749H26.4928V20.916H26.7395L28.0164 22.4507V20.916H28.3194Z" fill="#F4932D"/>
<path d="M30.4292 21.9349H30.7192V22.7358C30.612 22.8197 30.4898 22.8857 30.3512 22.9329C30.2127 22.977 30.0666 23 29.9141 23C29.6998 23 29.5072 22.9539 29.334 22.8616C29.1631 22.7694 29.0289 22.6436 28.9315 22.4842C28.833 22.3249 28.7843 22.1467 28.7843 21.9475C28.7843 21.7462 28.833 21.5659 28.9315 21.4066C29.0289 21.2452 29.1652 21.1194 29.3384 21.0292C29.5115 20.9401 29.7063 20.895 29.9227 20.895C30.0894 20.895 30.243 20.9223 30.3815 20.9747C30.52 21.0282 30.638 21.1068 30.7365 21.2095L30.5503 21.394C30.3794 21.2347 30.1738 21.155 29.9314 21.155C29.7691 21.155 29.6241 21.1885 29.4942 21.2556C29.3665 21.3227 29.267 21.4181 29.1955 21.5408C29.123 21.6613 29.0873 21.7966 29.0873 21.9475C29.0873 22.0964 29.123 22.2306 29.1955 22.3501C29.267 22.4706 29.3665 22.566 29.4942 22.6352C29.6241 22.7023 29.7691 22.7358 29.9314 22.7358C30.1218 22.7358 30.2874 22.6929 30.4292 22.6059V21.9349Z" fill="#F4932D"/>
<path d="M1.09078 18.2054C0.865695 18.2054 0.655764 18.1593 0.463147 18.067C0.272694 17.9748 0.117951 17.8469 0 17.6812L0.307322 17.329C0.515088 17.6173 0.775879 17.7609 1.09078 17.7609C1.29854 17.7609 1.45653 17.7001 1.56691 17.5764C1.6762 17.4506 1.73139 17.2682 1.73139 17.0271V14.9934H0.380906V14.5405H2.25946V16.9978C2.25946 17.3982 2.15991 17.7001 1.9608 17.9035C1.76385 18.1048 1.47385 18.2054 1.09078 18.2054Z" fill="#A6A6A6"/>
<path d="M5.02065 18.2053C4.64516 18.2053 4.30754 18.1257 4.00779 17.9663C3.70696 17.8049 3.47106 17.5837 3.29792 17.3038C3.12695 17.0218 3.04254 16.7042 3.04254 16.3519C3.04254 15.9997 3.12695 15.6842 3.29792 15.4043C3.47106 15.1223 3.70696 14.9011 4.00779 14.7417C4.31078 14.5803 4.64949 14.4985 5.02498 14.4985C5.31607 14.4985 5.58336 14.5468 5.82575 14.6411C6.06814 14.7365 6.27375 14.878 6.44472 15.0646L6.09844 15.3917C5.81817 15.1045 5.46757 14.9598 5.04662 14.9598C4.7696 14.9598 4.51855 15.0216 4.29347 15.1443C4.06839 15.2648 3.892 15.4315 3.7654 15.6433C3.64095 15.8529 3.57927 16.0899 3.57927 16.3519C3.57927 16.6151 3.64095 16.853 3.7654 17.0648C3.892 17.2776 4.06839 17.4443 4.29347 17.5638C4.51855 17.6843 4.7696 17.7441 5.04662 17.7441C5.46216 17.7441 5.81276 17.5994 6.09844 17.308L6.44472 17.6351C6.27375 17.8227 6.06598 17.9653 5.82142 18.0628C5.57903 18.1582 5.31174 18.2053 5.02065 18.2053Z" fill="#A6A6A6"/>
<path d="M10.3182 18.2053C9.9427 18.2053 9.60508 18.1257 9.30534 17.9663C9.00451 17.8049 8.76861 17.5837 8.59547 17.3038C8.42449 17.0218 8.34009 16.7042 8.34009 16.3519C8.34009 15.9997 8.42449 15.6842 8.59547 15.4043C8.76861 15.1223 9.00451 14.9011 9.30534 14.7417C9.60833 14.5803 9.94703 14.4985 10.3225 14.4985C10.6136 14.4985 10.8809 14.5468 11.1233 14.6411C11.3657 14.7365 11.5713 14.878 11.7423 15.0646L11.396 15.3917C11.1157 15.1045 10.7651 14.9598 10.3442 14.9598C10.0671 14.9598 9.8161 15.0216 9.59102 15.1443C9.36594 15.2648 9.18955 15.4315 9.06294 15.6433C8.9385 15.8529 8.87682 16.0899 8.87682 16.3519C8.87682 16.6151 8.9385 16.853 9.06294 17.0648C9.18955 17.2776 9.36594 17.4443 9.59102 17.5638C9.8161 17.6843 10.0671 17.7441 10.3442 17.7441C10.7597 17.7441 11.1103 17.5994 11.396 17.308L11.7423 17.6351C11.5713 17.8227 11.3635 17.9653 11.119 18.0628C10.8766 18.1582 10.6093 18.2053 10.3182 18.2053Z" fill="#A6A6A6"/>
<path d="M14.8891 17.2577H12.9023L12.4911 18.1635H11.9414L13.6338 14.5405H14.1619L15.863 18.1635H15.3003L14.8891 17.2577ZM14.703 16.8426L13.8935 15.0689L13.0885 16.8426H14.703Z" fill="#A6A6A6"/>
<path d="M18.915 18.1635L18.1099 17.0523C18.0082 17.0586 17.9292 17.0606 17.8719 17.0606H16.9499V18.1635H16.4175V14.5405H17.8719C18.3567 14.5405 18.7376 14.6537 19.0146 14.8802C19.2938 15.1045 19.4345 15.4117 19.4345 15.8027C19.4345 16.0826 19.362 16.3216 19.218 16.5197C19.0763 16.7158 18.8739 16.8583 18.612 16.9474L19.4994 18.1635H18.915ZM17.8589 16.6204C18.1965 16.6204 18.453 16.5512 18.6294 16.4107C18.8079 16.2681 18.8977 16.0658 18.8977 15.8027C18.8977 15.5427 18.8079 15.3435 18.6294 15.2031C18.453 15.0636 18.1965 14.9934 17.8589 14.9934H16.9499V16.6204H17.8589Z" fill="#A6A6A6"/>
<path d="M21.7543 14.5405C22.2391 14.5405 22.62 14.6537 22.897 14.8802C23.1762 15.1045 23.3168 15.4117 23.3168 15.8027C23.3168 16.1968 23.1762 16.5061 22.897 16.7294C22.62 16.9537 22.2391 17.0648 21.7543 17.0648H20.8323V18.1635H20.2999V14.5405H21.7543ZM21.7413 16.6162C22.0789 16.6162 22.3354 16.547 22.5117 16.4065C22.6903 16.2671 22.7801 16.0658 22.7801 15.8027C22.7801 15.5427 22.6903 15.3435 22.5117 15.2031C22.3354 15.0636 22.0789 14.9934 21.7413 14.9934H20.8323V16.6162H21.7413Z" fill="#A6A6A6"/>
<path d="M26.8652 17.7148V18.1635H24.1555V14.5405H26.7916V14.9934H24.688V16.1046H26.5622V16.5449H24.688V17.7148H26.8652Z" fill="#A6A6A6"/>
<path d="M30.9453 14.5405V18.1635H30.5081L28.266 15.463V18.1635H27.7336V14.5405H28.1707L30.4129 17.241V14.5405H30.9453Z" fill="#A6A6A6"/>
<path d="M32.81 14.9934H31.5287V14.5405H34.6193V14.9934H33.338V18.1635H32.81V14.9934Z" fill="#A6A6A6"/>
<path d="M37.7021 18.1635L36.897 17.0523C36.7953 17.0586 36.7163 17.0606 36.6589 17.0606H35.737V18.1635H35.2046V14.5405H36.6589C37.1437 14.5405 37.5246 14.6537 37.8016 14.8802C38.0808 15.1045 38.2215 15.4117 38.2215 15.8027C38.2215 16.0826 38.149 16.3216 38.0051 16.5197C37.8633 16.7158 37.661 16.8583 37.3991 16.9474L38.2864 18.1635H37.7021ZM36.6459 16.6204C36.9836 16.6204 37.24 16.5512 37.4164 16.4107C37.595 16.2681 37.6848 16.0658 37.6848 15.8027C37.6848 15.5427 37.595 15.3435 37.4164 15.2031C37.24 15.0636 36.9836 14.9934 36.6459 14.9934H35.737V16.6204H36.6459Z" fill="#A6A6A6"/>
<path d="M40.5153 16.9097V18.1635H39.9873V16.9013L38.5026 14.5405H39.074L40.2729 16.4526L41.4719 14.5405H42L40.5153 16.9097Z" fill="#A6A6A6"/>
<path d="M21.1268 10.6026H19.8661V9.38135H21.1268V10.6026Z" fill="#545454"/>
<path d="M19.4713 11.8819H18.2106V10.6606H19.4713V11.8819Z" fill="#545454"/>
<path d="M19.4713 10.6026H18.2106V9.38135H19.4713V10.6026Z" fill="#545454"/>
<mask id="mask0_138_121" style="mask-type:luminance" maskUnits="userSpaceOnUse" x="19" y="10" width="3" height="2">
<path d="M19.8661 10.6606H21.2512V11.9972H19.8661V10.6606Z" fill="white"/>
</mask>
<g mask="url(#mask0_138_121)">
<path d="M21.1335 11.904H19.8728V10.6816H21.1335V11.904Z" fill="#545454"/>
</g>
<mask id="mask1_138_121" style="mask-type:luminance" maskUnits="userSpaceOnUse" x="19" y="4" width="10" height="9">
<path d="M19.8661 4.26416H28.5534V12.0415H19.8661V4.26416Z" fill="white"/>
</mask>
<g mask="url(#mask1_138_121)">
<path d="M25.4326 8.98482V7.29914L25.7734 7.06327L24.1871 6.13238V8.21536L24.0345 8.0686L24.0323 7.62831L20.786 4.4834L19.8824 5.35978L26.6835 11.9484H28.4917L25.4326 8.98482Z" fill="#F4932D"/>
</g>
<path d="M23.3683 2.28203L22.5957 1.53459C20.2627 -0.725554 17.8106 0.17494 17.7803 0.187519C17.7803 0.187519 18.6579 0.383552 19.3797 0.971651C19.9618 1.44653 19.9954 2.30614 19.4565 2.8282L19.5961 2.96343L14.956 7.45856L16.1257 8.59282L20.7669 4.09769L20.9054 4.23188L21.4833 3.67208C21.5699 3.75595 21.6489 3.83038 21.7138 3.89118C21.822 3.99181 21.993 3.99077 22.099 3.88803L23.3683 2.65837C23.4755 2.55459 23.4755 2.38581 23.3683 2.28203ZM24.3466 3.23075L23.9657 2.86174C23.8228 2.72337 23.5913 2.72337 23.4495 2.86174L22.3263 3.94988C22.1834 4.08826 22.1834 4.3126 22.3263 4.45097L22.7061 4.81893C22.8489 4.9573 23.0805 4.9573 23.2233 4.81893L24.3466 3.73079C24.4894 3.59241 24.4894 3.36912 24.3466 3.23075ZM11.9271 10.1328C11.4921 10.5112 11.4737 11.1654 11.8871 11.5658C12.3004 11.9663 12.9757 11.9484 13.3663 11.527L15.9829 8.77208L14.7709 7.59693L11.9271 10.1328Z" fill="#A6A6A6"/>
</svg>
