<svg width="385" height="134" viewBox="0 0 385 134" fill="none" xmlns="http://www.w3.org/2000/svg">
<path d="M348.035 0C353.924 0 359.691 0.899461 365.322 2.68261C370.953 4.47364 375.138 6.241 377.886 7.9847L381.821 10.7304L371.801 31.3707C371.013 30.8263 369.908 30.1241 368.501 29.2562C367.085 28.3725 364.444 27.2048 360.569 25.753C356.694 24.2855 353.076 23.5438 349.731 23.5438C345.591 23.5438 342.404 24.4591 340.164 26.2895C337.924 28.12 336.804 30.6054 336.804 33.7377C336.804 35.2999 337.326 36.7359 338.378 38.0614C339.445 39.387 341.254 40.8072 343.797 42.3221C346.355 43.8369 348.611 45.0599 350.548 45.983C352.486 46.8904 355.468 48.2711 359.509 50.1174C366.548 53.2339 372.557 57.4709 377.522 62.8361C382.502 68.2013 385 74.2845 385 81.0778C385 87.6029 383.88 93.2916 381.64 98.1518C379.399 103.012 376.311 106.823 372.376 109.577C368.455 112.338 364.118 114.374 359.358 115.699C354.612 117.025 349.473 117.688 343.948 117.688C339.18 117.688 334.511 117.183 329.932 116.173C325.345 115.163 321.515 113.916 318.428 112.417C315.355 110.902 312.592 109.411 310.132 107.935C307.665 106.468 305.864 105.221 304.713 104.211L302.988 102.696L315.4 80.9516C316.467 81.8589 317.92 83.0267 319.76 84.4547C321.614 85.8907 324.891 87.7922 329.599 90.1671C334.321 92.5499 338.476 93.7334 342.071 93.7334C352.561 93.7334 357.814 90.0251 357.814 82.5927C357.814 81.0384 357.428 79.5945 356.664 78.269C355.914 76.9277 354.59 75.5864 352.698 74.2608C350.821 72.9353 349.156 71.886 347.702 71.1048C346.249 70.3316 343.865 69.1402 340.558 67.5386C337.265 65.9211 334.821 64.6981 333.231 63.8776C326.632 60.4691 321.523 56.2243 317.913 51.1273C314.295 46.0383 312.494 40.5547 312.494 34.6845C312.494 24.5064 316.104 16.1824 323.332 9.7205C330.552 3.2428 338.787 0 348.035 0Z" fill="#D9D9D9"/>
<path d="M146.683 113.585L101 0H129.003L156.462 74.6396L183.92 0H211.924L166.24 113.585H146.683Z" fill="#2563EB"/>
<path d="M278.769 113.585L261.331 49.8334L243.893 113.585H216.314L185.283 0H212.862L231.481 77.9218H232.147L251.946 0H270.716L290.515 77.9218H291.181L309.8 0H337.258L306.227 113.585H278.769Z" fill="#ECBE44"/>
<path d="M3.20652 16.3219C-1.06884 12.5835 -1.06884 6.54224 3.20652 2.80382C7.48188 -0.934605 14.4251 -0.934605 18.7004 2.80382L84.3699 60.226C88.6453 63.9644 88.6453 70.0356 84.3699 73.774L18.7004 131.196C14.4251 134.935 7.48188 134.935 3.20652 131.196C-1.06884 127.458 -1.06884 121.387 3.20652 117.648L61.112 66.985L3.20652 16.3219ZM87.5508 114.837H186.055C192.109 114.837 197 119.114 197 124.407C197 129.701 192.109 133.978 186.055 133.978H87.5508C81.4969 133.978 76.6059 129.701 76.6059 124.407C76.6059 119.114 81.4969 114.837 87.5508 114.837Z" fill="#2563EB"/>
</svg>
