<svg width="196" height="78" viewBox="0 0 196 78" fill="none" xmlns="http://www.w3.org/2000/svg">
<path d="M170 0C174.052 0 178.021 0.593749 181.896 1.77083C185.771 2.95313 188.651 4.11979 190.542 5.27083L193.25 7.08333L186.354 20.7083C185.813 20.349 185.052 19.8854 184.083 19.3125C183.109 18.7292 181.292 17.9583 178.625 17C175.958 16.0313 173.469 15.5417 171.167 15.5417C168.318 15.5417 166.125 16.1458 164.583 17.3542C163.042 18.5625 162.271 20.2031 162.271 22.2708C162.271 23.3021 162.63 24.25 163.354 25.125C164.089 26 165.333 26.9375 167.083 27.9375C168.844 28.9375 170.396 29.7448 171.729 30.3542C173.063 30.9531 175.115 31.8646 177.896 33.0833C182.74 35.1406 186.875 37.9375 190.292 41.4792C193.719 45.0208 195.438 49.0365 195.438 53.5208C195.438 57.8281 194.667 61.5833 193.125 64.7917C191.583 68 189.458 70.5156 186.75 72.3333C184.052 74.1563 181.068 75.5 177.792 76.375C174.526 77.25 170.99 77.6875 167.188 77.6875C163.906 77.6875 160.693 77.3542 157.542 76.6875C154.385 76.0208 151.75 75.1979 149.625 74.2083C147.51 73.2083 145.609 72.224 143.917 71.25C142.219 70.2813 140.979 69.4583 140.188 68.7917L139 67.7917L147.542 53.4375C148.276 54.0365 149.276 54.8073 150.542 55.75C151.818 56.6979 154.073 57.9531 157.313 59.5208C160.563 61.0938 163.422 61.875 165.896 61.875C173.115 61.875 176.729 59.4271 176.729 54.5208C176.729 53.4948 176.464 52.5417 175.938 51.6667C175.422 50.7813 174.51 49.8958 173.208 49.0208C171.917 48.1458 170.771 47.4531 169.771 46.9375C168.771 46.4271 167.13 45.6406 164.854 44.5833C162.589 43.5156 160.906 42.7083 159.813 42.1667C155.271 39.9167 151.755 37.1146 149.271 33.75C146.781 30.3906 145.542 26.7708 145.542 22.8958C145.542 16.1771 148.026 10.6823 153 6.41667C157.969 2.14063 163.635 0 170 0Z" fill="#D9D9D9"/>
<path d="M31.4375 74.9792L0 0H19.2708L38.1667 49.2708L57.0625 0H76.3333L44.8958 74.9792H31.4375Z" fill="#2563EB"/>
<path d="M122.333 74.9792L110.333 32.8958L98.3333 74.9792H79.3542L58 0H76.9792L89.7917 51.4375H90.25L103.875 0H116.792L130.417 51.4375H130.875L143.688 0H162.583L141.229 74.9792H122.333Z" fill="#ECBE44"/>
</svg>
