<svg width="243" height="73" viewBox="0 0 243 73" fill="none" xmlns="http://www.w3.org/2000/svg">
<g id="Layer 1">
<g id="Group">
<path id="Vector" fill-rule="evenodd" clip-rule="evenodd" d="M17.7798 44.9038C19.6271 44.0443 20.7851 42.3307 20.7851 40.4693C20.7851 37.6005 18.7007 36.095 14.6808 36.095H4.40756C5.00311 36.2428 5.32845 36.626 5.32845 37.1899C5.32845 37.3651 5.30088 37.5731 5.24022 37.8414L1.69451 53.6579C1.36916 55.1963 0.950073 55.7 -0.00390625 55.8149H10.2693C14.0797 55.8149 16.4343 55.1963 18.0721 53.7455C19.2907 52.6834 20.0352 51.0848 20.0352 49.634C20.0352 48.7197 19.765 47.8602 19.2632 47.2415C18.4912 46.267 17.4159 45.8236 15.1219 45.5553C16.4619 45.4349 16.9692 45.3199 17.7743 44.9038H17.7798ZM10.7215 40.2339H12.8335C13.9363 40.2339 14.4106 40.6499 14.4106 41.6244C14.4106 43.015 13.4566 43.8417 11.907 43.8417H9.91086L10.716 40.2339H10.7215ZM9.11128 47.3893H11.7637C13.2525 47.3893 14.0245 47.9806 14.0245 49.0755C14.0245 50.6413 12.7728 51.676 10.9255 51.676H8.1573L9.11128 47.3893Z" fill="white"/>
<path id="Vector_2" fill-rule="evenodd" clip-rule="evenodd" d="M31.0647 55.8149H37.5495C36.9154 55.5795 36.386 54.9718 36.0937 54.1615L34.1637 48.8018C36.9981 48.2488 38.7406 46.1191 38.7406 43.2559C38.7406 41.285 38.0513 40.0531 36.4908 39.21C35.2225 38.5257 33.9487 38.2903 31.5444 38.2903H22.9972C23.5266 38.4217 23.8188 38.7392 23.8188 39.2374C23.8188 39.3688 23.7913 39.5768 23.7416 39.8177L20.593 53.8987C20.2731 55.2674 19.9312 55.6835 19.082 55.8149H26.5705C25.986 55.6287 25.7764 55.366 25.7764 54.8404C25.7764 54.709 25.804 54.5009 25.8536 54.2601L26.8848 49.5846H29.0299L31.0702 55.8094L31.0647 55.8149ZM28.5777 41.9693H30.9875C32.4708 41.9693 33.2373 42.5496 33.2373 43.6008C33.2373 45.1008 32.1014 45.9111 30.0114 45.9111H27.712L28.5832 41.9693H28.5777Z" fill="white"/>
<path id="Vector_3" fill-rule="evenodd" clip-rule="evenodd" d="M48.565 53.9206L48.6201 54.3422C48.6477 54.4188 48.6477 54.5283 48.6477 54.605C48.6477 55.2893 48.3555 55.6835 47.7489 55.8149H55.0002C54.2834 55.6287 54.1014 55.3441 53.9139 54.1615L51.4545 38.2903H44.8925C45.3667 38.4764 45.5542 38.6845 45.5542 39.0239C45.5542 39.21 45.477 39.3907 45.2895 39.6809L36.847 53.6578C35.9206 55.2346 35.4464 55.6835 34.6523 55.8149H41.2695C40.8449 55.6561 40.663 55.4481 40.663 55.1032C40.663 54.917 40.7677 54.5502 40.9001 54.3422L42.411 51.7143H48.2617L48.5815 53.9206H48.565ZM44.1701 48.6375L46.6295 44.1975C46.7894 43.9074 46.9989 43.4639 47.214 42.8836V43.2778C47.214 43.9347 47.2416 44.4056 47.2912 44.6957L47.8206 48.6375H44.1701Z" fill="white"/>
<path id="Vector_4" fill-rule="evenodd" clip-rule="evenodd" d="M57.8811 39.2593C57.8811 39.3907 57.8535 39.5987 57.8039 39.8396L54.6552 53.8933C54.363 55.2619 54.0211 55.7054 53.1719 55.8094H60.0262C60.8975 55.8094 61.8239 55.7547 62.7503 55.678C65.9762 55.3386 68.0937 54.5228 69.9189 52.8695C72.0364 50.9752 73.3598 48.09 73.3598 45.3308C73.3598 43.6993 72.9077 42.2595 72.064 41.1536C70.531 39.0786 68.1488 38.2903 63.4892 38.2903H57.087C57.5889 38.4217 57.8811 38.7611 57.8811 39.2648V39.2593ZM62.6455 42.0678H63.3072C66.3787 42.0678 67.8069 43.1737 67.8069 45.5333C67.8069 47.3181 67.09 49.1083 65.9265 50.3128C64.8402 51.4406 63.3844 51.9442 61.3221 51.9442H60.4508L62.6455 42.0678Z" fill="white"/>
<path id="Vector_5" d="M86.3241 41.9692C87.1182 41.9692 87.3553 42.2046 87.4601 43.0751L88.5464 38.2957H75.3175C75.8469 38.427 76.1392 38.7446 76.1392 39.2428C76.1392 39.3742 76.1116 39.5822 76.062 39.7957L72.9133 53.9041C72.5934 55.2728 72.2516 55.7162 71.4023 55.8203H78.8908C78.3339 55.6615 78.0967 55.3494 78.0967 54.8458C78.0967 54.687 78.1243 54.4789 78.1739 54.2654L79.365 48.8783H84.3665C85.0283 48.8783 85.3701 49.1411 85.5301 49.7433L86.7487 44.2522C86.3793 44.9639 86.0098 45.1993 85.2929 45.1993H80.1867L80.9035 41.9692H86.3296H86.3241Z" fill="white"/>
<path id="Vector_6" fill-rule="evenodd" clip-rule="evenodd" d="M90.6278 40.7867C88.5875 42.8616 87.2695 46.015 87.2695 48.9057C87.2695 51.0353 88.1408 53.1595 89.5194 54.3968C90.898 55.6341 93.1423 56.3403 95.7671 56.3403C98.7283 56.3403 101.326 55.4753 103.206 53.8165C105.456 51.873 106.884 48.5334 106.884 45.3307C106.884 40.8359 103.548 37.896 98.4416 37.896C95.2653 37.896 92.4861 38.9198 90.6333 40.7867H90.6278ZM101.32 45.1719C101.32 47.1702 100.658 49.0863 99.4948 50.6631C98.4636 52.0317 97.4049 52.5792 95.8939 52.5792C93.986 52.5792 92.8004 51.2379 92.8004 49.1356C92.8004 47.2961 93.4897 44.9584 94.4437 43.5952C95.2377 42.44 96.6935 41.6517 98.0445 41.6517H98.1493C100.239 41.7064 101.326 42.9108 101.326 45.1719H101.32Z" fill="white"/>
<path id="Vector_7" fill-rule="evenodd" clip-rule="evenodd" d="M117.354 55.8149H123.839C123.204 55.5795 122.675 54.9718 122.383 54.1615L120.453 48.8018C123.282 48.2488 125.03 46.1191 125.03 43.2559C125.03 41.285 124.34 40.0531 122.78 39.21C121.512 38.5257 120.238 38.2903 117.833 38.2903H109.286C109.816 38.4217 110.108 38.7392 110.108 39.2374C110.108 39.3688 110.08 39.5768 110.031 39.8177L106.882 53.8987C106.562 55.2674 106.22 55.6835 105.371 55.8149H112.86C112.275 55.6287 112.065 55.366 112.065 54.8404C112.065 54.709 112.093 54.5009 112.143 54.2601L113.174 49.5846H115.319L117.359 55.8094L117.354 55.8149ZM114.867 41.9693H117.277C118.76 41.9693 119.526 42.5496 119.526 43.6008C119.526 45.1008 118.39 45.9111 116.3 45.9111H113.996L114.867 41.9693Z" fill="white"/>
<path id="Vector_8" fill-rule="evenodd" clip-rule="evenodd" d="M127.944 39.2593C127.944 39.3907 127.916 39.5987 127.866 39.8396L124.718 53.8933C124.425 55.2619 124.084 55.7054 123.234 55.8094H130.089C130.96 55.8094 131.886 55.7547 132.813 55.678C136.044 55.3386 138.156 54.5228 139.981 52.8695C142.099 50.9752 143.422 48.09 143.422 45.3308C143.422 43.6993 142.97 42.2595 142.126 41.1536C140.593 39.0786 138.211 38.2903 133.552 38.2903H127.15C127.651 38.4217 127.944 38.7611 127.944 39.2648V39.2593ZM132.708 42.0678H133.37C136.441 42.0678 137.869 43.1737 137.869 45.5333C137.869 47.3181 137.153 49.1083 135.989 50.3128C134.903 51.4406 133.447 51.9442 131.385 51.9442H130.513L132.708 42.0678Z" fill="white"/>
<path id="Vector_9" d="M165.682 56.0174H171.995L179.352 38.5749C179.975 37.0967 180.482 36.5328 181.497 36.0894H174.378C174.973 36.2372 175.21 36.5328 175.21 37.1241C175.21 37.5949 175.034 38.3066 174.703 39.0731L170.534 49.0371L169.52 36.0894H165.621L158.684 49.0371L159.158 38.0712C159.186 36.8887 159.577 36.2974 160.498 36.0894H152.039C152.932 36.3576 153.203 36.8011 153.203 37.9508V38.0712L152.877 56.0174H159.219L165.202 44.8106L165.676 56.0174H165.682Z" fill="white"/>
<path id="Vector_10" d="M187.134 53.8931C186.842 55.2344 186.472 55.7053 185.629 55.8093H193.117C192.56 55.6231 192.323 55.3384 192.323 54.8348C192.323 54.7034 192.351 54.4953 192.4 54.2544L195.521 40.2008C195.841 38.8595 196.183 38.4161 197.027 38.2847H189.538C190.04 38.4161 190.36 38.7829 190.36 39.2592C190.36 39.3906 190.332 39.5767 190.255 39.8395L189.141 44.9091H183.743L184.774 40.2063C185.094 38.865 185.436 38.4215 186.285 38.2901H178.796C179.326 38.4215 179.618 38.761 179.618 39.2646C179.618 39.396 179.59 39.6041 179.541 39.845L176.392 53.8986C176.078 55.2673 175.73 55.7107 174.887 55.8147H182.375C181.846 55.656 181.581 55.3165 181.581 54.8402C181.581 54.7088 181.609 54.4734 181.658 54.2106L182.927 48.5881H188.325L187.134 53.8931Z" fill="white"/>
<path id="Vector_11" d="M199.131 39.2592C199.131 39.3906 199.104 39.5986 199.054 39.8395L195.905 53.8931C195.613 55.2618 195.244 55.7052 194.395 55.8093H201.911C201.332 55.6231 201.089 55.3384 201.089 54.8348C201.089 54.676 201.117 54.468 201.166 54.2544L204.315 40.2008C204.607 38.8595 204.949 38.4161 205.798 38.2847H198.31C198.839 38.4161 199.131 38.7555 199.131 39.2592Z" fill="white"/>
<path id="Vector_12" d="M218.976 41.9693C220.355 41.9693 220.537 42.1281 220.724 43.3106L221.838 38.2903H206.36L205.301 43.0478C205.725 42.2047 206.172 41.9693 207.314 41.9693H210.539L207.865 53.8987C207.573 55.2674 207.231 55.6835 206.354 55.8149H213.87C213.313 55.6561 213.048 55.3441 213.048 54.8404C213.048 54.6816 213.076 54.4736 213.126 54.2601L215.877 41.9638H218.971L218.976 41.9693Z" fill="white"/>
<path id="Vector_13" d="M234.295 41.9693C234.984 41.9693 235.326 42.2321 235.459 42.8891L236.49 38.2903H222.914C223.443 38.4217 223.708 38.7611 223.708 39.2648C223.708 39.4236 223.68 39.6316 223.63 39.867L220.509 53.8987C220.217 55.24 219.848 55.7109 219.004 55.8149H232.922L233.953 51.2982C233.369 51.9826 233.082 52.1413 232.233 52.1413H226.25L227.016 48.6977H231.963C232.729 48.6977 233.126 48.9605 233.286 49.5408L234.477 44.1811C233.948 44.8381 233.551 45.0242 232.757 45.0242H227.832L228.494 41.9748H234.29L234.295 41.9693Z" fill="white"/>
<path id="Vector_14" d="M109.532 0C110.42 1.77381 112.41 5.05317 116.585 6.74486C123.621 9.59719 128.65 6.71749 134.589 8.22304C138.35 9.17564 140.103 10.9987 139.861 11.5243L138.184 18.5757C137.594 17.3549 136.569 16.2161 133.453 15.4114C126.897 13.7197 121.294 17.0811 114.644 14.7599C111.01 13.4897 108.131 10.2049 107.359 8.32706L109.543 0.00547473L109.532 0Z" fill="white"/>
<path id="Vector_15" d="M107.068 9.60278C108.066 11.278 109.77 14.1797 114.468 15.937C120.037 18.0229 127.443 15.2034 133.382 16.7035C137.143 17.6561 137.887 20.0759 137.887 20.0759L136.128 27.6092C135.808 26.4047 134.397 25.0306 131.347 24.2805C124.146 22.5012 119.045 26.235 112.312 23.7221C108.755 22.3917 106.527 19.8515 105.121 17.5083L107.062 9.60826L107.068 9.60278Z" fill="white"/>
<path id="Vector_16" d="M104.746 18.4607C105.755 20.0265 107.288 22.95 112.135 25.0085C117.357 27.2257 124.912 23.9354 130.851 25.441C134.612 26.3936 135.516 27.8444 135.792 28.8353L133.972 36.5273C133.487 35.4214 132.367 33.9542 129.362 33.0454C124.283 31.5015 116.519 34.863 109.362 32.2187C105.799 30.9047 103.042 28.1072 102.562 26.8918L104.752 18.4607H104.746Z" fill="white"/>
<path id="Vector_17" fill-rule="evenodd" clip-rule="evenodd" d="M238.562 39.5002C238.562 40.7156 239.555 41.6901 240.779 41.6901C242.003 41.6901 243.007 40.7156 243.007 39.5002C243.007 38.2848 242.014 37.3103 240.779 37.3103C239.544 37.3103 238.562 38.2958 238.562 39.5002ZM242.665 39.5002C242.665 40.5513 241.816 41.3944 240.779 41.3944C239.743 41.3944 238.893 40.5513 238.893 39.5002C238.893 38.449 239.732 37.6169 240.768 37.6169C241.805 37.6169 242.665 38.46 242.665 39.5002ZM240.68 39.6973L241.32 40.7046H241.915C241.805 40.6718 241.75 40.617 241.662 40.4747L241.11 39.6425C241.11 39.6425 241.143 39.6316 241.154 39.6316C241.54 39.533 241.695 39.3469 241.695 38.9965C241.695 38.5147 241.375 38.2958 240.691 38.2958H239.721C239.853 38.3395 239.886 38.3833 239.886 38.5366V40.4637C239.886 40.617 239.842 40.6827 239.721 40.7046H240.47C240.338 40.6608 240.305 40.617 240.305 40.4637V39.6973H240.68ZM240.305 38.6023H240.691C241.055 38.6023 241.253 38.7447 241.253 39.0075C241.253 39.2703 241.088 39.3797 240.691 39.3797H240.305V38.6023Z" fill="white"/>
</g>
<g id="Group_2">
<path id="Vector_18" d="M22.5781 64.9958H23.9788L25.4015 70.9742H25.4235L27.0116 64.9958H28.4233L29.9673 70.9742H29.9894L31.4562 64.9958H32.8568L30.6842 72.8138H29.2836L27.7065 66.8354H27.6844L26.0742 72.8138H24.6515L22.5781 64.9958Z" fill="white"/>
<path id="Vector_19" d="M43.8695 64.9958H45.3363L48.3692 72.8138H46.8914L46.1524 70.7443H43.0093L42.2704 72.8138H40.8477L43.8695 64.9958ZM43.3842 69.7041H45.7885L44.6084 66.3426H44.5753L43.3842 69.7041Z" fill="white"/>
<path id="Vector_20" d="M55.625 64.9958H61.9996V66.1784H59.4961V72.8138H58.1175V66.1784H55.625V64.9958Z" fill="white"/>
<path id="Vector_21" d="M71.1875 64.9958H76.8562V66.1784H72.5661V68.2259H76.5364V69.3428H72.5661V71.6312H76.9334V72.8138H71.1875V64.9958Z" fill="white"/>
<path id="Vector_22" d="M86.4062 64.9958H90.167C91.8875 64.9958 92.7698 65.7842 92.7698 67.1091C92.7698 68.6092 91.7221 68.9924 91.4684 69.08V69.1019C91.9426 69.1676 92.6374 69.518 92.6374 70.7553C92.6374 71.6641 92.7698 72.4962 93.0676 72.8138H91.5897C91.3802 72.4743 91.3802 72.0473 91.3802 71.6641C91.3802 70.2297 91.0824 69.5946 89.8141 69.5946H87.7848V72.8138H86.4062V64.9958ZM87.7848 68.5544H90.0457C90.917 68.5544 91.3912 68.1274 91.3912 67.3062C91.3912 66.3098 90.7405 66.1127 90.0237 66.1127H87.7848V68.5544Z" fill="white"/>
<path id="Vector_23" d="M113.746 64.9958H115.125V68.1055H118.709V64.9958H120.088V72.8138H118.709V69.288H115.125V72.8138H113.746V64.9958Z" fill="white"/>
<path id="Vector_24" d="M130.016 64.9958H135.684V66.1784H131.394V68.2259H135.365V69.3428H131.394V71.6312H135.762V72.8138H130.016V64.9958Z" fill="white"/>
<path id="Vector_25" d="M147.338 64.9958H148.805L151.838 72.8138H150.36L149.621 70.7443H146.478L145.739 72.8138H144.316L147.338 64.9958ZM146.853 69.7041H149.257L148.077 66.3426H148.044L146.853 69.7041Z" fill="white"/>
<path id="Vector_26" d="M159.098 64.9958H165.472V66.1784H162.969V72.8138H161.59V66.1784H159.098V64.9958Z" fill="white"/>
<path id="Vector_27" d="M174.656 64.9958H180.325V66.1784H176.035V68.2259H180.005V69.3428H176.035V71.6312H180.402V72.8138H174.656V64.9958Z" fill="white"/>
<path id="Vector_28" d="M189.879 64.9958H193.64C195.36 64.9958 196.242 65.7842 196.242 67.1091C196.242 68.6092 195.195 68.9924 194.941 69.08V69.1019C195.415 69.1676 196.11 69.518 196.11 70.7553C196.11 71.6641 196.242 72.4962 196.54 72.8138H195.062C194.853 72.4743 194.853 72.0473 194.853 71.6641C194.853 70.2297 194.555 69.5946 193.287 69.5946H191.257V72.8138H189.879V64.9958ZM191.257 68.5544H193.518C194.39 68.5544 194.864 68.1274 194.864 67.3062C194.864 66.3098 194.213 66.1127 193.496 66.1127H191.257V68.5544Z" fill="white"/>
<path id="Vector_29" d="M206.816 70.2079C206.816 71.4123 207.709 71.8832 208.812 71.8832C210.025 71.8832 210.478 71.2919 210.478 70.7006C210.478 70.1094 210.147 69.8575 209.827 69.7371C209.275 69.529 208.559 69.3867 207.478 69.0911C206.132 68.7297 205.735 67.9195 205.735 67.1092C205.735 65.5434 207.191 64.8098 208.614 64.8098C210.257 64.8098 211.636 65.6748 211.636 67.3063H210.257C210.191 66.2989 209.507 65.9267 208.559 65.9267C207.919 65.9267 207.114 66.1566 207.114 66.945C207.114 67.4924 207.489 67.799 208.051 67.9523C208.173 67.9852 209.915 68.4341 210.323 68.5545C211.36 68.8611 211.856 69.7371 211.856 70.5473C211.856 72.2992 210.29 73 208.724 73C206.926 73 205.471 72.146 205.438 70.2079H206.816Z" fill="white"/>
</g>
</g>
</svg>
