<?xml version="1.0" encoding="utf-8"?>
<!-- Generator: Adobe Illustrator 24.3.0, SVG Export Plug-In . SVG Version: 6.00 Build 0)  -->
<svg version="1.1" id="Layer_1" xmlns="http://www.w3.org/2000/svg" xmlns:xlink="http://www.w3.org/1999/xlink" x="0px" y="0px"
	 viewBox="0 0 232.4 61.9" style="enable-background:new 0 0 232.4 61.9;" xml:space="preserve">
<style type="text/css">
	.st0{fill:#FFFFFF;}
</style>
<path class="st0" d="M31,61.9C13.9,61.9,0,48.1,0,31S13.8,0,30.9,0s31,13.8,31,30.9c0,0,0,0,0,0.1C61.9,48,48.1,61.9,31,61.9
	 M31,1.5C14.7,1.4,1.5,14.6,1.5,30.9s13.1,29.5,29.4,29.5c16.3,0,29.5-13.1,29.5-29.4c0,0,0,0,0-0.1C60.4,14.7,47.3,1.5,31,1.5
	 M57.2,39.8c0,0-0.1,0.1-0.2,0s-0.1-0.1-0.1-0.1c0.6-2.1,1-4.4,1-6.6c0-3.8-1.5-6.1-3.5-6.1c-1.1,0-2,0.8-2.1,1.9c0,0.1,0,0.1,0,0.2
	c0,2.3,2.8,2.5,2.8,7.5c0,2.1-0.4,4.2-1.1,6.2C50.9,53.6,40.8,58.5,31,58.5c-3,0.1-5.9-0.4-8.7-1.4c0-0.1,0-0.1,0-0.2
	c0,0,0.1-0.1,0.1-0.1c2.1,0.7,4.4,1,6.6,1c3.8,0,6-1.5,6-3.4c0-1.2-0.9-2.1-2.1-2.1c0,0,0,0,0,0c-2.3,0-2.5,2.9-7.5,2.9
	c-2.2,0-4.3-0.4-6.4-1.1C8.4,50.9,3.3,40.9,3.3,30.9c0-3,0.5-5.9,1.4-8.7c0,0,0.1,0,0.2,0c0,0,0.1,0.1,0.1,0.1c-0.7,2.1-1,4.4-1,6.6
	c0,3.8,1.5,6,3.5,6c1.1,0,2-0.8,2-1.9c0,0,0-0.1,0-0.1c0-2.3-2.8-2.6-2.8-7.5c0-2.1,0.4-4.3,1.1-6.3C11.1,8.4,21.1,3.4,31,3.3
	c3,0,5.9,0.5,8.7,1.5c0,0,0,0.1,0,0.2C39.7,5,39.7,5,39.6,5c-2.1-0.8-4.4-1.1-6.6-1.1c-3.7,0-6,1.5-6,3.5c0,1.1,0.8,2,1.9,2.1
	c0.1,0,0.1,0,0.2,0c2.3,0,2.5-2.8,7.5-2.8c2.1,0,4.2,0.4,6.2,1.1c10.7,3.3,15.6,13.4,15.7,23.1C58.6,33.9,58.1,36.9,57.2,39.8
	 M42.4,32.4c-2.7-0.1-5,2-5.1,4.7c0,0,0,0,0,0c0,2.2,1.3,3.9,3,3.9c0.6,0.1,1.1-0.4,1.2-1c0,0,0-0.1,0-0.1c0-1.1-1.5-1.4-1.4-3
	c0.1-1.1,1-1.9,2.1-1.9c2.1,0,3,2,3,4c0.1,2.9-2.2,5.3-5.2,5.4c0,0,0,0,0,0c-3.6,0-5.9-3.4-5.9-7.1c0-5.5,3.6-7.6,5.5-8.1
	c0,0,4.9,0.9,4.8-1.3c-0.1-1-1.5-1.3-2.5-1.4c-0.8,0-1.5,0.1-2.3,0.4c-0.6-0.4-1.1-0.9-1.3-1.6c3.5-2.7,6-5.2,6-8.1
	c0.1-1.5-1.1-2.9-2.7-2.9c-0.1,0-0.2,0-0.3,0c-3.5,0-6.2,4.5-6.2,8.5c0,0.7,0,1.3,0.2,2c-2.2,1.6-4.5,3.1-6.9,4.4
	c0-0.9,0.1-1.7,0.3-2.6c1-1.1,2.4-2.8,2.4-4.1c0.1-0.5-0.3-1-0.9-1.1c0,0-0.1,0-0.1,0c-1.7,0-3,2.6-3.3,4.4
	c-0.9,1.1-2.2,1.9-3.6,2.1c-0.7,0-1.3-0.6-1.5-1.3c3.3-1.1,7.3-5.6,7.3-9.6c0.1-1.4-1-2.7-2.4-2.8c-0.2,0-0.3,0-0.5,0
	c-3.9,0-7.1,5.7-7.1,10.2c-1.4,0-1.9-1.5-1.9-2.6c0.1-0.9,0.2-1.7,0.4-2.6c0-0.4-0.2-0.7-0.6-0.8c0,0-0.1,0-0.1,0
	c-1.3,0-2.1,1.7-2.1,3.7c-0.1,2.5,1.8,4.5,4.3,4.6c0.4,1.7,1.8,3,3.6,3.1c1.2,0,2.5-0.4,3.4-1.2c-0.1,0.6-0.2,1.1-0.3,1.6
	c-3.8,2-6.5,3.3-9,5.6c-1.8,1.5-2.9,3.7-3.1,6.1c-0.2,2.6,1.8,4.8,4.4,5c0.2,0,0.4,0,0.6,0c4,0,7-3.2,8.4-7.5
	c0.7-2.5,1.1-5.2,1.1-7.8c2.7-1.5,5.3-3.2,7.9-5c0.2,0.4,0.5,0.7,0.9,1c-3.8,1.8-6.2,5.7-6.1,9.9c0,4.5,3,9.4,8.9,9.4
	c4.4,0,8.1-3.5,8.2-7.9C48.1,35.7,46.1,32.4,42.4,32.4 M18.8,44.4c-1.1,0.1-2.1-0.7-2.1-1.9c0-0.1,0-0.2,0-0.3c0-3.7,5.1-7.2,9-9.1
	C25,38.3,23.3,44.2,18.8,44.4 M21.7,24.2c0-2.8,2.8-8.2,4.5-7.6C28.2,17.2,24.5,22.6,21.7,24.2 M37.9,22.9c0-3.5,2.4-6.9,3.7-6.3
	C43,17.3,40.5,20.6,37.9,22.9"/>
<path class="st0" d="M77.7,31L77.7,31c0-3.2,2.6-5.9,5.9-5.9c0.1,0,0.2,0,0.2,0c1.7-0.1,3.3,0.5,4.6,1.6L86.6,29
	c-0.7-0.7-1.7-1.1-2.7-1.1c-1.6,0.1-2.9,1.4-2.9,3.1l0,0c-0.1,1.7,1.2,3.1,2.9,3.1c0.1,0,0.1,0,0.2,0c0.6,0,1.3-0.1,1.8-0.5v-1.4
	h-2.2V30h5.2v5.1c-1.4,1.1-3.1,1.8-4.9,1.8c-3.2,0.2-6-2.3-6.2-5.5C77.7,31.3,77.7,31.1,77.7,31"/>
<polygon class="st0" points="92.2,25.3 101.3,25.3 101.3,27.9 95.3,27.9 95.3,29.7 100.7,29.7 100.7,32.1 95.3,32.1 95.3,33.9 
	101.3,33.9 101.3,36.6 92.2,36.6 "/>
<path class="st0" d="M114.6,25.2h3l4.8,11.4H119l-0.8-2h-4.4l-0.8,2h-3.3L114.6,25.2z M117.3,32.2l-1.3-3.2l-1.3,3.2H117.3z"/>
<path class="st0" d="M125.2,25.3h4.8c2.9,0,4.7,1.5,4.7,4l0,0c0,2.7-2.1,4.1-4.9,4.1h-1.5v3.2h-3.2V25.3z M129.8,30.9
	c1.1,0,1.8-0.6,1.8-1.5l0,0c0-1-0.7-1.5-1.8-1.5h-1.5v3L129.8,30.9z"/>
<path class="st0" d="M137.7,25.3h4.9c2.9,0,4.7,1.5,4.7,4l0,0c0,2.7-2.1,4.1-4.9,4.1h-1.6v3.2h-3.1V25.3z M142.3,30.9
	c1.1,0,1.8-0.6,1.8-1.5l0,0c0-1-0.7-1.5-1.8-1.5h-1.5v3L142.3,30.9z"/>
<polygon class="st0" points="150.2,25.3 153.3,25.3 153.3,33.9 158.8,33.9 158.8,36.6 150.2,36.6 "/>
<rect x="161.8" y="25.3" class="st0" width="3.2" height="11.3"/>
<path class="st0" d="M172.6,25.2h3l4.8,11.4h-3.4l-0.8-2h-4.4l-0.8,2h-3.3L172.6,25.2z M175.4,32.2l-1.3-3.2l-1.3,3.2H175.4z"/>
<polygon class="st0" points="183.2,25.3 186.1,25.3 190.8,31.3 190.8,25.3 193.9,25.3 193.9,36.6 191.1,36.6 186.3,30.4 186.3,36.6 
	183.2,36.6 "/>
<path class="st0" d="M197.1,31L197.1,31c0-3.2,2.5-5.9,5.7-5.9c0.1,0,0.2,0,0.3,0c1.9-0.1,3.7,0.8,4.8,2.4l-2.4,1.8
	c-0.6-0.8-1.5-1.3-2.5-1.3c-1.6,0.1-2.8,1.4-2.7,2.9c0,0,0,0.1,0,0.1l0,0c-0.1,1.5,1.1,2.9,2.6,3c0,0,0.1,0,0.1,0c1,0,2-0.5,2.6-1.4
	l2.4,1.7c-1.9,2.7-5.7,3.3-8.4,1.4C198.1,34.6,197.2,32.9,197.1,31"/>
<polygon class="st0" points="210.9,25.3 220.1,25.3 220.1,27.9 214,27.9 214,29.7 219.5,29.7 219.5,32.1 214,32.1 214,33.9 
	220.1,33.9 220.1,36.6 210.9,36.6 "/>
<path class="st0" d="M222.5,34.9l1.8-2.1c1,0.9,2.3,1.3,3.7,1.3c0.8,0,1.3-0.3,1.3-0.8l0,0c0-0.5-0.4-0.7-1.9-1.1
	c-2.4-0.5-4.3-1.2-4.3-3.6l0,0c0-2.1,1.7-3.6,4.4-3.6c1.7-0.1,3.3,0.5,4.7,1.5l-1.6,2.2c-0.9-0.7-2-1.1-3.2-1.1
	c-0.8,0-1.1,0.3-1.1,0.7l0,0c0,0.5,0.4,0.7,2,1.1c2.6,0.6,4.2,1.4,4.2,3.5l0,0c0,2.3-1.8,3.7-4.6,3.7
	C225.9,36.8,224,36.1,222.5,34.9"/>
<path class="st0" d="M77.6,49.7c0-2,1.8-4.5,3.8-4.5c0.6,0,1.2,0.3,1.6,0.9l0.3-0.7h1.1l-1.2,5.7c-0.1,0.4-0.1,0.8,0.3,0.8
	s1-0.6,1.5-1.7l0.3,0.2c-0.6,1.3-1.4,2-2.1,2c-0.9,0-1.4-0.5-1.3-1.7H82c-0.2,0.5-0.9,1.7-2.2,1.7S77.6,51.3,77.6,49.7 M82.6,47.2
	c0-1.1-0.4-1.5-1.1-1.5c-1.3,0-2.6,2.7-2.6,4.9c0,0.7,0.2,1.2,0.9,1.2C81.7,51.8,82.6,48.6,82.6,47.2"/>
<path class="st0" d="M130.6,49.7c0.1-2.3,1.8-4.2,4.1-4.4c0.8-0.1,1.5,0.5,1.7,1.3c0,0.1,0,0.1,0,0.2c0,0.7-0.4,1.2-1.1,1.3
	c-0.3,0-0.6-0.2-0.7-0.6c0,0,0,0,0,0c0-0.5,0.8-1.2,0.8-1.5s0-0.3-0.4-0.3c-1.8,0-3,2.8-3,5c0,0.8,0.4,1.2,1.2,1.2
	c1-0.1,1.9-0.7,2.5-1.5l0.3,0.2c-0.6,1.1-1.8,1.8-3,1.9C131.6,52.3,130.5,51.1,130.6,49.7C130.7,49.7,130.7,49.6,130.6,49.7"/>
<path class="st0" d="M136.8,49.4c0-2.4,2.1-4.2,3.6-4.2c1.6,0,2.8,1.3,2.8,2.9c0,0,0,0.1,0,0.1c-0.1,2.1-1.6,3.8-3.7,4.1
	c-1.5,0-2.7-1.2-2.7-2.7C136.8,49.5,136.8,49.4,136.8,49.4 M141.8,47.3c0-1.1-0.4-1.7-1.3-1.7c-1.2,0-2.3,2.3-2.3,4.6
	c0,1.1,0.4,1.7,1.2,1.7C140.5,51.9,141.8,49.9,141.8,47.3"/>
<path class="st0" d="M152,50.4l0.9-3.8c0.1-0.5,0.1-0.9-0.5-0.9c-1,0-2,1.4-2.3,3l-0.8,3.5H148l1.2-5.6c0.1-0.5,0.1-0.9-0.5-0.9
	c-1,0-2,1.4-2.4,3l-0.8,3.5h-1.4l1.2-6c0.1-0.3-0.1-0.4-1.2-0.5l0.1-0.4l2.6-0.1l-0.4,1.7h0.1c0.1-0.4,0.9-1.8,2.2-1.8
	s1.5,1,1.5,1.8c0.2-0.4,0.9-1.8,2.2-1.8s1.7,1.2,1.4,2.3l-0.8,3.5c-0.1,0.4,0,0.8,0.4,0.8s1-0.6,1.5-1.7l0.3,0.2
	c-0.6,1.3-1.3,2-2.1,2c-0.8,0-1.5-0.7-1.5-1.5c0-0.2,0-0.3,0.1-0.5"/>
<path class="st0" d="M154.6,55.1h0.1c0.8,0,0.9-0.1,1-0.7l1.7-8.1c0.1-0.3-0.1-0.5-1.1-0.6l0.1-0.4l2.7-0.1l-0.4,1.7h0.1
	c0.4-1,1.3-1.7,2.3-1.8c1.4,0.1,2.4,1.3,2.2,2.7c0,0,0,0,0,0c0,2-1.9,4.5-3.9,4.5c-0.6,0-1.3-0.2-1.6-0.8l-0.7,2.9
	c-0.1,0.4,0,0.6,0.7,0.6h0.5l-0.1,0.4h-3.6L154.6,55.1z M161.8,47c0-0.7-0.3-1.2-1-1.2c-1.8,0-2.8,3.2-2.8,4.7
	c0,1.1,0.5,1.5,1.1,1.5C160.4,52,161.8,49.2,161.8,47"/>
<path class="st0" d="M163.8,49.7c0-2,1.8-4.5,3.8-4.5c0.7,0,1.3,0.4,1.6,0.9l0.3-0.7h1.1l-1.2,5.7c-0.1,0.4-0.1,0.8,0.4,0.8
	s1-0.6,1.5-1.7l0.3,0.2c-0.6,1.3-1.4,2-2.1,2c-0.9,0-1.4-0.5-1.3-1.7h-0.1c-0.2,0.4-0.9,1.7-2.2,1.7S163.7,51.3,163.8,49.7
	 M168.7,47.2c0-1.1-0.4-1.5-1-1.5c-1.3,0-2.6,2.7-2.6,4.9c0,0.7,0.2,1.2,0.9,1.2C167.9,51.8,168.8,48.6,168.7,47.2"/>
<path class="st0" d="M176.8,45.8c-1,0-2.2,1.4-2.5,3l-0.8,3.5h-1.3l1.2-6c0.1-0.3-0.1-0.4-1.2-0.5l0.1-0.4l2.6-0.1l-0.4,1.7h0.1
	c0.4-1,1.3-1.6,2.4-1.8c1.2,0,1.7,1.2,1.4,2.3l-0.8,3.6c-0.1,0.4-0.1,0.8,0.4,0.8s1-0.6,1.5-1.7l0.3,0.2c-0.6,1.3-1.3,2-2.1,2
	c-0.8,0-1.5-0.7-1.5-1.5c0-0.2,0-0.3,0.1-0.5l0.8-3.8C177.4,46.1,177.3,45.7,176.8,45.8"/>
<path class="st0" d="M179.9,54.1c0-0.6,0.4-1.1,1-1.1c0.4,0,0.7,0.2,0.7,0.6c0,0,0,0,0,0c0,0.4-0.5,0.9-0.6,1.2s0.1,0.4,0.4,0.4
	c1.8,0,2.6-1.5,3.3-4.5h-0.1c-0.4,1-1.3,1.6-2.4,1.8c-1.2,0-1.7-1.2-1.4-2.7l0.8-3.5c0.1-0.2,0-0.4-1-0.5l0.1-0.4l2.5-0.1l-1.2,5.3
	c-0.2,0.8-0.2,1.3,0.4,1.3c1,0,2.1-1.4,2.5-3l0.8-3.5h1.4l-1.4,6.5c-0.4,2-2.1,3.6-4.2,3.7C180.7,55.6,180,55,179.9,54.1
	C179.9,54.2,179.9,54.1,179.9,54.1"/>
<path class="st0" d="M121.9,49c0-0.1,0-0.3,0-0.4c0.1-2.3-1.7-4.1-4-4.2c-2.3-0.1-4.1,1.7-4.2,4c-0.1,2.3,1.7,4.1,4,4.2
	c0,0,0.1,0,0.1,0c1.7,0,3.2-1,3.8-2.5l-1.8-0.3c-0.4,0.7-1.2,1.2-2,1.2c-1.1,0-2.1-0.9-2.2-2L121.9,49z M117.9,46.3
	c0.9,0,1.7,0.6,2.1,1.5h-4.2C116.1,46.9,116.9,46.3,117.9,46.3"/>
<rect x="110.6" y="44.8" class="st0" width="2.1" height="7.7"/>
<path class="st0" d="M111.6,41.6c-0.6,0-1.2,0.5-1.2,1.2c0,0.6,0.5,1.2,1.2,1.2c0.6,0,1.2-0.5,1.2-1.2c0,0,0,0,0,0
	C112.8,42.2,112.3,41.6,111.6,41.6L111.6,41.6"/>
<polygon class="st0" points="97.8,42.3 97.8,46.5 93.3,46.5 93.3,42.3 91,42.3 91,52.5 93.3,52.5 93.3,48.3 97.8,48.3 97.8,52.5 
	100.1,52.5 100.1,42.3 "/>
<path class="st0" d="M107.2,44.8v0.4c-1.9-1.1-4.4-0.5-5.5,1.4c-1.1,1.9-0.5,4.4,1.4,5.5c1.3,0.7,2.8,0.7,4.1,0v0.4h2v-7.7H107.2z
	 M105.2,50.9c-1.3,0-2.3-1.1-2.3-2.3s1.1-2.3,2.3-2.3c1.3,0,2.3,1.1,2.3,2.3C107.6,49.9,106.5,50.9,105.2,50.9
	C105.2,50.9,105.2,50.9,105.2,50.9"/>
<path class="st0" d="M126.3,44.1c-1.9,0.4-3.4,2-3.4,4v4.4h2V48c0-1,0.7-1.9,1.8-2L126.3,44.1z"/>
</svg>
