<?xml version="1.0" encoding="UTF-8"?>
<svg id="Layer_1" data-name="Layer 1" xmlns="http://www.w3.org/2000/svg" xmlns:xlink="http://www.w3.org/1999/xlink" version="1.1" viewBox="0 0 243 73">
  <defs>
    <style>
      .cls-1 {
        clip-path: url(#clippath);
      }

      .cls-2 {
        fill: none;
      }

      .cls-2, .cls-3, .cls-4 {
        stroke-width: 0px;
      }

      .cls-3 {
        fill: #f4932d;
      }

      .cls-5 {
        clip-path: url(#clippath-1);
      }

      .cls-6 {
        clip-path: url(#clippath-3);
      }

      .cls-7 {
        clip-path: url(#clippath-2);
      }

      .cls-4 {
        fill: #fff;
      }
    </style>
    <clipPath id="clippath">
      <rect class="cls-2" x="-84.6" y="176.5" width="99.2" height="89.7" transform="translate(-256.2 185.6) rotate(-89.8)"/>
    </clipPath>
    <clipPath id="clippath-1">
      <rect class="cls-2" x="-37.9" y="258.5" width="12.7" height="11.3" transform="translate(-295.6 231.7) rotate(-89.8)"/>
    </clipPath>
    <clipPath id="clippath-2">
      <rect class="cls-2" x="-24.8" y="258.5" width="12.7" height="11.3" transform="translate(-282.5 244.9) rotate(-89.8)"/>
    </clipPath>
    <clipPath id="clippath-3">
      <rect class="cls-2" x="-25.8" y="209.1" width="63.6" height="60.2" transform="translate(-233.2 244.4) rotate(-89.8)"/>
    </clipPath>
  </defs>
  <g class="cls-1">
    <path class="cls-4" d="M1.3,190.9l-5.2-6.2c-15.8-18.7-32.4-11.3-32.6-11.2,0,0,5.9,1.6,10.8,6.5,3.9,3.9,4.1,11,.5,15.3l.9,1.1-31.6,37,7.9,9.4,31.6-37,.9,1.1,3.9-4.6c.6.7,1.1,1.3,1.6,1.8.7.8,1.9.8,2.6,0l8.6-10.1c.7-.9.7-2.2,0-3.1ZM7.9,198.8l-2.6-3.1c-1-1.1-2.5-1.1-3.5,0l-7.6,8.9c-1,1.1-1,3,0,4.1l2.6,3.1c1,1.1,2.5,1.1,3.5,0l7.6-8.9c1-1.1,1-3,0-4.1ZM-76.5,255.4c-3,3.1-3.1,8.5-.3,11.8,2.8,3.3,7.4,3.2,10-.3l17.8-22.7-8.2-9.7-19.3,20.8"/>
  </g>
  <path class="cls-4" d="M-26.9,256.2h-8.5s0-10.1,0-10.1h8.5s0,10.1,0,10.1"/>
  <path class="cls-4" d="M-14.4,256.2h-8.5s0-10.1,0-10.1h8.5s0,10.1,0,10.1"/>
  <g class="cls-5">
    <path class="cls-4" d="M-27,269.7h-8.5s0-10.1,0-10.1h8.5s0,10.1,0,10.1"/>
  </g>
  <g class="cls-7">
    <path class="cls-4" d="M-14.4,269.8h-8.5s0-10.1,0-10.1h8.5s0,10.1,0,10.1"/>
  </g>
  <g class="cls-6">
    <path class="cls-3" d="M14.5,245.1v-13.8s2.3-1.9,2.3-1.9l-10.2-7.4v17c0,0-1.1-1.2-1.1-1.2v-3.6s-22.9-26-22.9-26l-6.4,7.2,48,54.5h11.4s-20.7-24.5-20.7-24.5"/>
  </g>
  <path class="cls-4" d="M70.3,224.2c-1.7,0-3.3-.4-4.7-1.2-1.4-.8-2.6-1.8-3.5-3.2l3.3-4.6c1.4,2.2,3,3.3,4.7,3.3,2.4,0,3.6-1.6,3.6-4.9v-14.2s-8.9,0-8.9,0v-5.6s14.8,0,14.8,0v19.4c0,3.7-.9,6.5-2.4,8.3-1.6,1.8-3.8,2.7-6.8,2.7Z"/>
  <path class="cls-4" d="M97.3,224.3c-2.6,0-4.9-.7-7-2-2.1-1.3-3.7-3.2-4.9-5.5-1.2-2.4-1.8-5-1.8-8s.6-5.6,1.8-7.9c1.2-2.3,2.8-4.2,4.9-5.5,2.1-1.3,4.4-2,7-2,2.2,0,4.2.5,6,1.4,1.8.9,3.3,2.2,4.4,3.9l-3.8,4.1c-1.7-2.3-3.8-3.5-6.4-3.5-1.6,0-3,.4-4.2,1.2-1.2.8-2.2,1.9-2.9,3.4-.7,1.4-1,3.1-1,4.9,0,1.8.3,3.5,1,4.9.7,1.5,1.6,2.6,2.9,3.4,1.2.8,2.6,1.2,4.2,1.2,2.5,0,4.6-1.2,6.4-3.5l3.7,4.1c-1.2,1.7-2.7,3.1-4.5,4-1.8.9-3.8,1.3-6,1.3Z"/>
  <path class="cls-4" d="M134.1,224.4c-2.6,0-4.9-.7-7-2-2.1-1.3-3.7-3.2-4.9-5.5-1.2-2.4-1.8-5-1.8-8,0-2.9.6-5.6,1.8-7.9,1.2-2.3,2.8-4.2,4.9-5.5,2.1-1.3,4.4-2,7-2,2.2,0,4.2.5,6,1.4,1.8.9,3.3,2.2,4.4,3.9l-3.8,4.1c-1.7-2.3-3.8-3.5-6.4-3.5s-3,.4-4.2,1.2c-1.2.8-2.2,1.9-2.9,3.4-.7,1.4-1,3.1-1,4.9,0,1.8.3,3.5,1,4.9.7,1.5,1.6,2.6,2.9,3.4,1.2.8,2.6,1.2,4.2,1.2,2.5,0,4.6-1.2,6.4-3.5l3.7,4.1c-1.2,1.7-2.7,3.1-4.5,4-1.8.9-3.8,1.3-6,1.3Z"/>
  <path class="cls-4" d="M165.2,217.6h-11.8s-2.3,6.3-2.3,6.3h-6s11.4-29.8,11.4-29.8h5.8s11.3,29.9,11.3,29.9h-6.2s-2.2-6.4-2.2-6.4ZM163.4,212.3l-4-11.5-4.1,11.4h8Z"/>
  <path class="cls-4" d="M192.4,224.1l-4.9-8.3h-5.4s0,8.3,0,8.3h-5.9s0-29.9,0-29.9h11c2.2,0,4.2.5,5.8,1.4,1.7.9,2.9,2.1,3.8,3.7.9,1.6,1.3,3.5,1.3,5.8,0,2.2-.5,4.1-1.4,5.7-.9,1.6-2.2,2.8-3.9,3.7l5.6,9.6h-6.3ZM192.3,205.1c0-1.7-.5-3-1.4-3.9-.9-.9-2.3-1.4-4-1.4h-4.8s0,10.4,0,10.4h4.8c1.8,0,3.1-.4,4-1.3.9-.9,1.4-2.2,1.4-3.8Z"/>
  <path class="cls-4" d="M213.9,194.3c2.2,0,4.2.5,5.8,1.4,1.7.9,2.9,2.1,3.8,3.7.9,1.6,1.3,3.5,1.3,5.8s-.5,4.1-1.4,5.7c-.9,1.6-2.2,2.9-3.8,3.8-1.6.9-3.6,1.3-5.8,1.3h-5.1s0,8.2,0,8.2h-5.9s0-29.9,0-29.9h11ZM213.5,210.3c1.8,0,3.1-.4,4-1.3.9-.9,1.4-2.2,1.4-3.8,0-1.7-.5-3-1.4-3.9-.9-.9-2.3-1.4-4-1.4h-4.8s0,10.4,0,10.4h4.8Z"/>
  <path class="cls-4" d="M248.9,218.7v5.5s-19.6,0-19.6,0v-29.9c0,0,19.3,0,19.3,0v5.6s-13.3,0-13.3,0v6.5s11.7,0,11.7,0v5.4s-11.8,0-11.8,0v6.9s13.8,0,13.8,0Z"/>
  <path class="cls-4" d="M276.9,194.5v29.9c0,0-4.9,0-4.9,0l-12.6-18.2v18.1c0,0-5.9,0-5.9,0v-29.9c0,0,5,0,5,0l12.5,18.2v-18.1c0,0,5.9,0,5.9,0Z"/>
  <path class="cls-4" d="M288.2,200.2h-8.1s0-5.7,0-5.7h22.1c0,0,0,5.7,0,5.7h-8.1s0,24.2,0,24.2h-5.9s0-24.2,0-24.2Z"/>
  <path class="cls-4" d="M321.4,224.5l-4.9-8.3h-5.4s0,8.3,0,8.3h-5.9s0-29.9,0-29.9h11c2.2,0,4.2.5,5.8,1.4,1.7.9,2.9,2.1,3.8,3.7.9,1.6,1.3,3.5,1.3,5.8s-.5,4.1-1.4,5.7c-.9,1.6-2.2,2.8-3.9,3.7l5.6,9.6h-6.3ZM321.3,205.5c0-1.7-.5-3-1.4-3.9-.9-.9-2.3-1.4-4-1.4h-4.8s0,10.4,0,10.4h4.8c1.8,0,3.1-.4,4-1.3.9-.9,1.4-2.2,1.4-3.8Z"/>
  <path class="cls-4" d="M344,214v10.6s-5.9,0-5.9,0v-10.6s-9.7-19.2-9.7-19.2h6.2s6.7,13.3,6.7,13.3l6.8-13.3h5.8s-9.9,19.3-9.9,19.3Z"/>
  <path class="cls-3" d="M144.5,265.4l-2.8-4.7h-3.1s0,4.7,0,4.7h-3.3s0-17,0-17h6.2c1.3,0,2.4.3,3.3.8.9.5,1.7,1.2,2.2,2.2.5.9.8,2,.8,3.3,0,1.3-.3,2.4-.8,3.3-.5.9-1.2,1.6-2.2,2.1l3.2,5.5h-3.6ZM144.5,254.6c0-.9-.3-1.7-.8-2.2-.5-.5-1.3-.8-2.3-.8h-2.7s0,5.9,0,5.9h2.7c1,0,1.8-.2,2.3-.7.5-.5.8-1.3.8-2.2Z"/>
  <path class="cls-3" d="M161.6,262.3v3.1s-11.2,0-11.2,0v-17c0,0,10.9,0,10.9,0v3.1s-7.6,0-7.6,0v3.7s6.7,0,6.7,0v3s-6.7,0-6.7,0v3.9s7.8,0,7.8,0Z"/>
  <path class="cls-3" d="M177.4,265.5v-10.2s-4.2,8.4-4.2,8.4h-1.5s-4.2-8.2-4.2-8.2v10s-3.2,0-3.2,0v-17c0,0,2.8,0,2.8,0l5.4,10.6,5.3-10.5h2.7s0,17,0,17h-3.1Z"/>
  <path class="cls-3" d="M190.9,265.8c-1.5,0-2.9-.4-4-1.1-1.2-.8-2.1-1.8-2.8-3.2-.7-1.3-1-2.8-1-4.5s.3-3.2,1-4.5c.7-1.3,1.6-2.4,2.8-3.1,1.2-.8,2.5-1.1,4.1-1.1,1.5,0,2.8.4,4,1.2,1.2.8,2.1,1.8,2.8,3.2.7,1.3,1,2.8,1,4.5,0,1.7-.4,3.2-1,4.5-.7,1.3-1.6,2.4-2.8,3.1-1.2.7-2.5,1.1-4,1.1ZM190.9,262.5c.8,0,1.6-.2,2.3-.7.7-.5,1.2-1.1,1.6-1.9.4-.8.6-1.8.6-2.8,0-1.1-.2-2-.6-2.8-.4-.8-.9-1.5-1.6-1.9-.7-.5-1.4-.7-2.3-.7s-1.6.2-2.3.7c-.7.5-1.2,1.1-1.6,1.9-.4.8-.6,1.7-.6,2.8s.2,2,.6,2.8c.4.8.9,1.5,1.6,1.9.7.5,1.4.7,2.3.7Z"/>
  <path class="cls-3" d="M201.3,248.6h6.5c1.6,0,2.9.4,4.1,1.1,1.2.7,2.1,1.7,2.8,3,.7,1.3,1,2.8,1,4.5,0,1.7-.3,3.2-1,4.5-.7,1.3-1.6,2.3-2.8,3-1.2.7-2.6,1-4.1,1h-6.5s0-17,0-17ZM207.6,262.4c1.4,0,2.6-.5,3.5-1.4.9-.9,1.3-2.2,1.3-3.8,0-1.6-.4-2.9-1.3-3.8-.9-.9-2-1.4-3.5-1.4h-3s0,10.5,0,10.5h3Z"/>
  <path class="cls-3" d="M229.4,262.5v3.1s-11.2,0-11.2,0v-17c0,0,10.9,0,10.9,0v3.1s-7.6,0-7.6,0v3.7s6.7,0,6.7,0v3s-6.7,0-6.7,0v3.9s7.8,0,7.8,0Z"/>
  <path class="cls-3" d="M232.1,248.7h3.3s0,13.8,0,13.8h7.2s0,3.2,0,3.2h-10.6s0-17,0-17Z"/>
  <path class="cls-3" d="M244.5,248.8h3.3s0,17,0,17h-3.3s0-17,0-17Z"/>
  <path class="cls-3" d="M264.5,248.8v17c0,0-2.8,0-2.8,0l-7.2-10.3v10.3s-3.3,0-3.3,0v-17c0,0,2.8,0,2.8,0l7.1,10.3v-10.3s3.3,0,3.3,0Z"/>
  <path class="cls-3" d="M277.6,257.1h3.1s0,6.9,0,6.9c-.8.7-1.7,1.2-2.7,1.6-1,.4-2.1.5-3.1.5-1.5,0-2.8-.4-4-1.1-1.2-.8-2.1-1.8-2.8-3.1-.7-1.3-1-2.8-1-4.5,0-1.7.3-3.2,1-4.5.7-1.3,1.6-2.4,2.8-3.1,1.2-.8,2.6-1.1,4.1-1.1,1.3,0,2.4.3,3.4.8,1,.5,1.9,1.2,2.6,2.2l-2.1,2.3c-1-1.3-2.3-1.9-3.7-1.9-.9,0-1.7.2-2.5.7-.7.4-1.3,1.1-1.7,1.9-.4.8-.6,1.8-.6,2.8,0,1,.2,2,.6,2.8.4.8,1,1.5,1.7,1.9.7.5,1.5.7,2.4.7s1.8-.2,2.6-.7v-5Z"/>
</svg>