<?xml version="1.0" encoding="UTF-8"?>
<svg id="Layer_2" data-name="Layer 2" xmlns="http://www.w3.org/2000/svg" xmlns:xlink="http://www.w3.org/1999/xlink" viewBox="0 0 307.69 59.68">
  <defs>
    <style>
      .cls-1 {
        clip-path: url(#clippath);
      }

      .cls-2 {
        fill: none;
      }

      .cls-2, .cls-3, .cls-4 {
        stroke-width: 0px;
      }

      .cls-3 {
        fill: #f4932d;
      }

      .cls-5 {
        clip-path: url(#clippath-1);
      }

      .cls-6 {
        clip-path: url(#clippath-3);
      }

      .cls-7 {
        clip-path: url(#clippath-2);
      }

      .cls-4 {
        fill: #fff;
      }
    </style>
    <clipPath id="clippath">
      <rect class="cls-2" width="63.44" height="59.68"/>
    </clipPath>
    <clipPath id="clippath-1">
      <rect class="cls-2" x="30.1" y="52" width="8" height="7.68"/>
    </clipPath>
    <clipPath id="clippath-2">
      <rect class="cls-2" x="39.44" y="52" width="8" height="7.68"/>
    </clipPath>
    <clipPath id="clippath-3">
      <rect class="cls-2" x="39.44" y="21.33" width="42.56" height="38.35"/>
    </clipPath>
  </defs>
  <g id="Layer_1-2" data-name="Layer 1">
    <g class="cls-1">
      <path class="cls-3" d="M57.26,11.66l-3.72-3.72C42.31-3.29,30.51,1.19,30.36,1.25c0,0,4.22.97,7.7,3.89,2.8,2.36,2.96,6.64.37,9.23l.67.67-22.33,22.33,5.63,5.64,22.34-22.33.67.67,2.78-2.78c.42.41.8.78,1.11,1.09.52.49,1.34.49,1.85-.02l6.11-6.11c.52-.52.52-1.35,0-1.86ZM61.96,16.36l-1.83-1.83c-.69-.69-1.8-.69-2.48,0l-5.41,5.41c-.69.69-.69,1.8,0,2.49l1.83,1.83c.69.69,1.8.69,2.49,0l5.41-5.41c.69-.69.69-1.8,0-2.49ZM2.19,50.66c-2.09,1.88-2.18,5.13-.19,7.12s5.24,1.9,7.12-.19l12.59-13.69-5.83-5.84-13.69,12.6"/>
    </g>
    <path class="cls-4" d="M37.35,51.04h-6.07v-6.07h6.07v6.07"/>
    <path class="cls-4" d="M46.29,51.04h-6.07v-6.07h6.07v6.07"/>
    <g class="cls-5">
      <path class="cls-4" d="M37.35,59.21h-6.07v-6.07h6.07v6.07"/>
    </g>
    <g class="cls-7">
      <path class="cls-4" d="M46.29,59.21h-6.07v-6.07h6.07v6.07"/>
    </g>
    <g class="cls-6">
      <path class="cls-3" d="M66.98,44.49v-8.37l1.64-1.18-7.64-4.63v10.35l-.73-.73v-2.19s-15.64-15.62-15.64-15.62l-4.35,4.35,32.73,32.73h8.7l-14.72-14.72"/>
    </g>
    <path class="cls-4" d="M106.33,31.58c-1.22,0-2.35-.23-3.38-.69-1.02-.46-1.85-1.1-2.5-1.94l2.31-2.77c.98,1.32,2.1,1.98,3.35,1.98,1.69,0,2.54-.99,2.54-2.98v-8.56h-6.33v-3.35h10.48v11.67c0,2.22-.55,3.89-1.65,5-1.1,1.1-2.71,1.65-4.83,1.65Z"/>
    <path class="cls-4" d="M125.53,31.58c-1.83,0-3.49-.4-4.98-1.19-1.49-.8-2.66-1.92-3.5-3.33-.85-1.42-1.27-3.01-1.27-4.79s.42-3.38,1.27-4.79c.84-1.42,2.01-2.52,3.5-3.31,1.48-.8,3.15-1.21,5-1.21,1.55,0,2.96.28,4.23.83,1.26.54,2.32,1.33,3.17,2.35l-2.67,2.48c-1.22-1.4-2.73-2.1-4.52-2.1-1.11,0-2.1.24-2.98.73-.88.49-1.56,1.17-2.04,2.04-.49.88-.73,1.87-.73,2.98s.24,2.1.73,2.98c.48.88,1.17,1.56,2.04,2.06.88.49,1.86.73,2.98.73,1.79,0,3.3-.71,4.52-2.15l2.67,2.48c-.85,1.04-1.91,1.84-3.19,2.4-1.27.54-2.68.81-4.23.81Z"/>
    <path class="cls-4" d="M151.64,31.58c-1.83,0-3.49-.4-4.98-1.19-1.49-.8-2.66-1.92-3.5-3.33-.85-1.42-1.27-3.01-1.27-4.79s.42-3.38,1.27-4.79c.84-1.42,2.01-2.52,3.5-3.31,1.48-.8,3.15-1.21,5-1.21,1.55,0,2.96.28,4.23.83,1.26.54,2.32,1.33,3.17,2.35l-2.67,2.48c-1.22-1.4-2.73-2.1-4.52-2.1-1.11,0-2.1.24-2.98.73-.88.49-1.56,1.17-2.04,2.04-.49.88-.73,1.87-.73,2.98s.24,2.1.73,2.98c.48.88,1.17,1.56,2.04,2.06.88.49,1.86.73,2.98.73,1.79,0,3.3-.71,4.52-2.15l2.67,2.48c-.85,1.04-1.91,1.84-3.19,2.4-1.27.54-2.68.81-4.23.81Z"/>
    <path class="cls-4" d="M173.71,27.41h-8.35l-1.58,3.85h-4.27l8.02-18h4.1l8.06,18h-4.38l-1.6-3.85ZM172.4,24.24l-2.85-6.9-2.85,6.9h5.71Z"/>
    <path class="cls-4" d="M193.03,31.26l-3.48-5.02h-3.83v5.02h-4.17V13.26h7.79c1.59,0,2.98.27,4.15.81,1.18.53,2.08,1.28,2.71,2.25.64.97.96,2.14.96,3.48s-.32,2.49-.96,3.46c-.64.96-1.55,1.7-2.73,2.21l4.02,5.79h-4.46ZM192.94,19.81c0-1.01-.33-1.79-.98-2.33-.66-.54-1.6-.81-2.85-.81h-3.4v6.27h3.4c1.25,0,2.2-.27,2.85-.81.65-.55.98-1.32.98-2.31Z"/>
    <path class="cls-4" d="M208.23,13.26c1.59,0,2.98.27,4.15.81,1.18.53,2.08,1.28,2.71,2.25.64.97.96,2.14.96,3.48s-.32,2.47-.96,3.46c-.63.99-1.53,1.74-2.71,2.27-1.17.52-2.55.77-4.15.77h-3.63v4.96h-4.17V13.26h7.79ZM208,22.91c1.25,0,2.2-.27,2.85-.81.65-.54.98-1.3.98-2.29s-.33-1.79-.98-2.33c-.66-.54-1.6-.81-2.85-.81h-3.4v6.25h3.4Z"/>
    <path class="cls-4" d="M233.19,27.93v3.33h-13.94V13.26h13.6v3.35h-9.46v3.9h8.35v3.25h-8.35v4.17h9.79Z"/>
    <path class="cls-4" d="M253.02,13.26v18h-3.42l-8.98-10.92v10.92h-4.13V13.26h3.46l8.94,10.94v-10.94h4.13Z"/>
    <path class="cls-4" d="M261,16.66h-5.75v-3.4h15.69v3.4h-5.77v14.6h-4.17v-14.6Z"/>
    <path class="cls-4" d="M284.63,31.26l-3.48-5.02h-3.83v5.02h-4.17V13.26h7.79c1.59,0,2.98.27,4.15.81,1.18.53,2.08,1.28,2.71,2.25.64.97.96,2.14.96,3.48s-.32,2.49-.96,3.46c-.64.96-1.55,1.7-2.73,2.21l4.02,5.79h-4.46ZM284.55,19.81c0-1.01-.33-1.79-.98-2.33-.66-.54-1.6-.81-2.85-.81h-3.4v6.27h3.4c1.25,0,2.2-.27,2.85-.81.65-.55.98-1.32.98-2.31Z"/>
    <path class="cls-4" d="M300.69,24.89v6.38h-4.17v-6.42l-6.96-11.58h4.42l4.81,8,4.79-8h4.1l-7,11.63Z"/>
    <path class="cls-4" d="M159.13,56.26l-1.98-2.85h-2.17v2.85h-2.38v-10.23h4.44c.9,0,1.69.16,2.35.46.67.31,1.18.74,1.54,1.29.36.56.54,1.21.54,1.96s-.19,1.43-.56,1.98c-.36.54-.88.96-1.54,1.25l2.29,3.29h-2.54ZM159.09,49.74c0-.57-.19-1.01-.56-1.31-.38-.3-.92-.46-1.63-.46h-1.92v3.56h1.92c.71,0,1.25-.15,1.63-.46.38-.32.56-.76.56-1.33Z"/>
    <path class="cls-4" d="M171.27,54.37v1.9h-7.92v-10.23h7.73v1.9h-5.38v2.23h4.75v1.83h-4.75v2.38h5.56Z"/>
    <path class="cls-4" d="M182.47,56.26l-.02-6.13-3,5.04h-1.08l-2.98-4.92v6h-2.23v-10.23h1.96l3.83,6.35,3.77-6.35h1.94l.02,10.23h-2.21Z"/>
    <path class="cls-4" d="M192.06,56.43c-1.07,0-2.03-.22-2.88-.67-.85-.46-1.52-1.09-2-1.9-.49-.8-.73-1.71-.73-2.71s.24-1.92.73-2.71c.48-.8,1.15-1.44,2-1.9.84-.46,1.8-.69,2.88-.69s2.01.23,2.85.69c.84.46,1.51,1.09,2,1.9.48.79.73,1.7.73,2.71s-.24,1.91-.73,2.71c-.49.81-1.16,1.44-2,1.9-.85.45-1.8.67-2.85.67ZM192.06,54.43c.59,0,1.14-.14,1.63-.42.48-.28.86-.67,1.15-1.17.28-.5.42-1.06.42-1.69s-.14-1.2-.42-1.69c-.28-.5-.66-.89-1.15-1.17-.49-.28-1.03-.42-1.63-.42s-1.16.14-1.65.42c-.49.28-.87.67-1.15,1.17-.28.49-.42,1.05-.42,1.69s.14,1.19.42,1.69c.28.5.66.89,1.15,1.17.48.28,1.03.42,1.65.42Z"/>
    <path class="cls-4" d="M199.44,46.04h4.65c1.11,0,2.09.22,2.94.65.86.42,1.53,1.02,2,1.79.47.77.71,1.66.71,2.69s-.24,1.91-.71,2.69c-.47.77-1.14,1.36-2,1.79-.85.42-1.83.63-2.94.63h-4.65v-10.23ZM203.96,54.33c1.03,0,1.84-.28,2.46-.85.61-.57.92-1.34.92-2.31s-.31-1.74-.92-2.31c-.61-.57-1.43-.85-2.46-.85h-2.15v6.33h2.15Z"/>
    <path class="cls-4" d="M219.42,54.37v1.9h-7.92v-10.23h7.73v1.9h-5.38v2.23h4.75v1.83h-4.75v2.38h5.56Z"/>
    <path class="cls-4" d="M221.31,46.04h2.38v8.29h5.13v1.94h-7.5v-10.23Z"/>
    <path class="cls-4" d="M230.13,46.04h2.38v10.23h-2.38v-10.23Z"/>
    <path class="cls-4" d="M244.3,46.04v10.23h-1.94l-5.1-6.21v6.21h-2.33v-10.23h1.96l5.08,6.21v-6.21h2.33Z"/>
    <path class="cls-4" d="M253.64,50.99h2.17v4.15c-.56.42-1.2.74-1.94.96-.74.22-1.47.33-2.21.33-1.06,0-2.01-.22-2.85-.67-.85-.46-1.52-1.08-2-1.88-.49-.8-.73-1.71-.73-2.73s.24-1.92.73-2.73c.48-.8,1.15-1.43,2-1.88.86-.46,1.82-.69,2.9-.69.9,0,1.71.16,2.44.46.73.29,1.35.73,1.85,1.31l-1.52,1.4c-.74-.76-1.62-1.15-2.65-1.15-.66,0-1.24.14-1.75.42-.5.27-.9.65-1.19,1.15-.28.49-.42,1.06-.42,1.71s.14,1.19.42,1.69c.29.5.69.89,1.19,1.17.5.28,1.07.42,1.71.42.69,0,1.31-.15,1.85-.44v-3Z"/>
  </g>
</svg>