<?xml version="1.0" encoding="UTF-8"?>
<svg id="Layer_2" data-name="Layer 2" xmlns="http://www.w3.org/2000/svg" viewBox="0 0 51.47 9.96" width="243" height="73">
  <defs>
    <style>
      .cls-1 {
        fill: #eb2429;
      }

      .cls-1, .cls-2 {
        stroke-width: 0px;
      }

      .cls-2 {
        fill: #fff;
      }
    </style>
  </defs>
  <g id="Layer_1-2" data-name="Layer 1">
    <g>
      <rect class="cls-2" x="1.55" y="1.59" width="6.15" height="6.78"/>
      <path class="cls-1" d="M11.78,5.01l-.04-.03.04-.03c.82-.39,1.4-1.27,1.4-2.28,0-1.38-1.07-2.5-2.38-2.5-.84,0-1.58.46-2,1.15l-.04.1-.06-.1c-.4-.78-1.19-1.31-2.09-1.31s-1.7.54-2.11,1.33l-.05.07-.06-.08C3.97.63,3.22.17,2.38.17,1.07.17,0,1.29,0,2.67c0,1.01.57,1.88,1.39,2.28l.05.03-.05.04c-.82.4-1.39,1.27-1.39,2.28,0,1.38,1.07,2.5,2.38,2.5.84,0,1.58-.46,2.01-1.16l.06-.08.05.07c.4.79,1.19,1.33,2.11,1.33s1.69-.53,2.09-1.31l.06-.09.04.09c.42.69,1.16,1.15,2,1.15,1.31,0,2.38-1.12,2.38-2.5,0-1.01-.57-1.89-1.4-2.28M7.31,7.39c0,.42-.32.76-.72.76-.21,0-.4-.1-.54-.25l-2.94-3.41v2.91c0,.42-.32.76-.72.76s-.72-.34-.72-.76V2.53c0-.42.32-.76.72-.76.21,0,.4.1.54.25l2.94,3.41v-2.91c0-.42.32-.76.72-.76s.72.34.72.76v4.86Z"/>
      <path class="cls-2" d="M19.66,7.92s.24.59.88.59h1.15V1.53h-1.15v5.17l-2.33-4.58s-.24-.59-.88-.59h-1.15v6.97h1.15V3.34l2.33,4.58"/>
      <path class="cls-2" d="M48.56,3.73s.56-.52.56-1.49v-.65h-4.75v.9h3.21l-2.86,3.94s-.56.76-.56,1.6v.54h4.97v-1.03h-3.4l2.82-3.81"/>
      <polyline class="cls-2" points="41.94 8.56 41.94 2.49 43.87 2.49 43.87 1.58 38.65 1.58 38.65 2.49 40.59 2.49 40.59 8.56 41.94 8.56"/>
      <rect class="cls-2" x="36.53" y="1.58" width="1.35" height="6.97"/>
      <path class="cls-2" d="M35.19,3.29c-.01-1.45-1.04-1.74-2.13-1.74M35.1,8.56v-1.37c.01-1.1-.44-1.75-1.09-1.93l.02-.04.08-.03c.65-.18,1.09-.62,1.1-1.63v-.28c-.02-1.45-1-1.74-2.09-1.74l-3.1.04v6.97h1.34V2.37h1.33s1.14.06,1.14.77v.48c0,.99-1.14,1.07-1.14,1.07h-.54s0,.93,0,.93h.47c.18,0,1.14.21,1.14,1.61v1.32s1.37,0,1.37,0Z"/>
      <path class="cls-2" d="M26.45,1.39h-.98c-1.08,0-2.54.82-2.54,2.97v1.42c0,2.15,1.45,2.97,2.54,2.97h.98c1.09,0,2.54-.82,2.54-2.97v-1.42c0-2.15-1.45-2.97-2.54-2.97M27.54,6.36c0,1.12-1,1.57-1.35,1.57h-.45c-.35,0-1.35-.45-1.35-1.57v-2.58c0-1.12,1-1.57,1.35-1.57h.45c.35,0,1.35.45,1.35,1.57v2.58Z"/>
      <path class="cls-2" d="M50.66,1.44c.45,0,.81.38.81.87s-.36.87-.81.87-.82-.38-.82-.87.37-.87.82-.87h0ZM50.66,1.57c-.36,0-.66.33-.66.73s.3.74.66.74c.37,0,.66-.32.66-.73s-.29-.74-.66-.74h0ZM50.5,2.81h-.15v-.97c.08-.01.15-.02.26-.02.14,0,.23.03.29.07.06.04.08.11.08.2,0,.13-.08.2-.18.24h0c.08.02.14.1.15.24.02.15.04.21.06.24h-.15s-.04-.12-.06-.25c-.02-.12-.08-.17-.2-.17h-.1v.42ZM50.5,2.27h.11c.12,0,.22-.05.22-.17,0-.09-.06-.17-.22-.17-.05,0-.08,0-.11,0v.33Z"/>
    </g>
  </g>
</svg>