<svg xmlns="http://www.w3.org/2000/svg" xmlns:xlink="http://www.w3.org/1999/xlink" width="500" zoomAndPan="magnify" viewBox="0 0 375 374.999991" height="500" preserveAspectRatio="xMidYMid meet" version="1.0"><defs><g/></defs><g fill="#2563eb" fill-opacity="1"><g transform="translate(29.519182, 203.133738)"><g><path d="M 14.359375 0 L -1.265625 -37.25 L 8.3125 -37.25 L 17.703125 -12.78125 L 27.09375 -37.25 L 36.671875 -37.25 L 21.046875 0 Z M 14.359375 0 "/></g></g></g><g fill="#2563eb" fill-opacity="1"><g transform="translate(57.150989, 203.133738)"><g><path d="M 4.890625 -2.75 C 2.316406 -5.039062 1.03125 -7.976562 1.03125 -11.5625 C 1.03125 -15.144531 2.367188 -18.085938 5.046875 -20.390625 C 7.734375 -22.691406 11.046875 -23.84375 14.984375 -23.84375 C 18.867188 -23.84375 22.144531 -22.679688 24.8125 -20.359375 C 27.476562 -18.046875 28.8125 -15.113281 28.8125 -11.5625 C 28.8125 -8.007812 27.507812 -5.082031 24.90625 -2.78125 C 22.300781 -0.476562 18.992188 0.671875 14.984375 0.671875 C 10.835938 0.671875 7.472656 -0.46875 4.890625 -2.75 Z M 11.078125 -15.484375 C 10.046875 -14.460938 9.53125 -13.15625 9.53125 -11.5625 C 9.53125 -9.96875 10.023438 -8.664062 11.015625 -7.65625 C 12.015625 -6.644531 13.328125 -6.140625 14.953125 -6.140625 C 16.515625 -6.140625 17.796875 -6.648438 18.796875 -7.671875 C 19.804688 -8.703125 20.3125 -10 20.3125 -11.5625 C 20.3125 -13.15625 19.789062 -14.460938 18.75 -15.484375 C 17.71875 -16.515625 16.453125 -17.03125 14.953125 -17.03125 C 13.410156 -17.03125 12.117188 -16.515625 11.078125 -15.484375 Z M 11.078125 -15.484375 "/></g></g></g><g fill="#2563eb" fill-opacity="1"><g transform="translate(79.229058, 203.133738)"><g><path d="M 2.703125 0 L 2.703125 -38.828125 L 10.703125 -38.828125 L 10.703125 0 Z M 2.703125 0 "/></g></g></g><g fill="#2563eb" fill-opacity="1"><g transform="translate(84.871688, 203.133738)"><g><path d="M 4.0625 -23.171875 L 4.0625 -31.796875 L 12.0625 -31.796875 L 12.0625 -23.171875 L 16.9375 -23.171875 L 16.9375 -17.0625 L 12.0625 -17.0625 L 12.0625 -9.703125 C 12.0625 -7.566406 12.660156 -6.5 13.859375 -6.5 C 14.160156 -6.5 14.476562 -6.554688 14.8125 -6.671875 C 15.144531 -6.796875 15.398438 -6.921875 15.578125 -7.046875 L 15.84375 -7.21875 L 17.84375 -0.765625 C 16.125 0.191406 14.164062 0.671875 11.96875 0.671875 C 10.457031 0.671875 9.160156 0.410156 8.078125 -0.109375 C 6.992188 -0.640625 6.171875 -1.347656 5.609375 -2.234375 C 5.054688 -3.117188 4.660156 -4.050781 4.421875 -5.03125 C 4.179688 -6.007812 4.0625 -7.054688 4.0625 -8.171875 L 4.0625 -17.0625 L 0.71875 -17.0625 L 0.71875 -23.171875 Z M 4.0625 -23.171875 "/></g></g></g><g fill="#ecbe44" fill-opacity="1"><g transform="translate(94.944959, 203.133738)"><g><path d="M 31.296875 0 L 25.328125 -20.90625 L 19.375 0 L 9.9375 0 L -0.671875 -37.25 L 8.765625 -37.25 L 15.125 -11.703125 L 15.359375 -11.703125 L 22.125 -37.25 L 28.53125 -37.25 L 35.3125 -11.703125 L 35.53125 -11.703125 L 41.90625 -37.25 L 51.296875 -37.25 L 40.6875 0 Z M 31.296875 0 "/></g></g></g><g fill="#ecbe44" fill-opacity="1"><g transform="translate(137.793081, 203.133738)"><g><path d="M 26.140625 -10.46875 L 9.34375 -10.46875 C 9.34375 -8.84375 9.867188 -7.640625 10.921875 -6.859375 C 11.984375 -6.078125 13.128906 -5.6875 14.359375 -5.6875 C 15.648438 -5.6875 16.671875 -5.859375 17.421875 -6.203125 C 18.179688 -6.554688 19.039062 -7.242188 20 -8.265625 L 25.78125 -5.375 C 23.375 -1.34375 19.367188 0.671875 13.765625 0.671875 C 10.273438 0.671875 7.28125 -0.519531 4.78125 -2.90625 C 2.28125 -5.300781 1.03125 -8.1875 1.03125 -11.5625 C 1.03125 -14.9375 2.28125 -17.828125 4.78125 -20.234375 C 7.28125 -22.640625 10.273438 -23.84375 13.765625 -23.84375 C 17.441406 -23.84375 20.429688 -22.78125 22.734375 -20.65625 C 25.035156 -18.53125 26.1875 -15.5 26.1875 -11.5625 C 26.1875 -11.019531 26.171875 -10.65625 26.140625 -10.46875 Z M 9.578125 -14.90625 L 18.375 -14.90625 C 18.195312 -16.101562 17.722656 -17.023438 16.953125 -17.671875 C 16.179688 -18.328125 15.195312 -18.65625 14 -18.65625 C 12.675781 -18.65625 11.617188 -18.304688 10.828125 -17.609375 C 10.046875 -16.921875 9.628906 -16.019531 9.578125 -14.90625 Z M 9.578125 -14.90625 "/></g></g></g><g fill="#ecbe44" fill-opacity="1"><g transform="translate(157.252319, 203.133738)"><g><path d="M 26.546875 -20.265625 C 28.710938 -17.890625 29.796875 -14.984375 29.796875 -11.546875 C 29.796875 -8.117188 28.710938 -5.222656 26.546875 -2.859375 C 24.378906 -0.503906 21.625 0.671875 18.28125 0.671875 C 15.21875 0.671875 12.691406 -0.425781 10.703125 -2.625 L 10.609375 -2.625 L 10.609375 0 L 2.703125 0 L 2.703125 -38.828125 L 10.703125 -38.828125 L 10.703125 -20.953125 C 12.691406 -22.878906 15.21875 -23.84375 18.28125 -23.84375 C 21.625 -23.84375 24.378906 -22.648438 26.546875 -20.265625 Z M 19.8125 -7.65625 C 20.8125 -8.664062 21.3125 -9.96875 21.3125 -11.5625 C 21.3125 -13.15625 20.789062 -14.460938 19.75 -15.484375 C 18.71875 -16.515625 17.429688 -17.03125 15.890625 -17.03125 C 14.390625 -17.03125 13.117188 -16.515625 12.078125 -15.484375 C 11.035156 -14.460938 10.515625 -13.15625 10.515625 -11.5625 C 10.515625 -10 11.019531 -8.703125 12.03125 -7.671875 C 13.039062 -6.648438 14.328125 -6.140625 15.890625 -6.140625 C 17.515625 -6.140625 18.820312 -6.644531 19.8125 -7.65625 Z M 19.8125 -7.65625 "/></g></g></g><g fill="#d9d9d9" fill-opacity="1"><g transform="translate(180.32777, 203.133738)"><g><path d="M 16.4375 -37.9375 C 18.457031 -37.9375 20.429688 -37.640625 22.359375 -37.046875 C 24.285156 -36.460938 25.710938 -35.882812 26.640625 -35.3125 L 28 -34.40625 L 24.5625 -27.640625 C 24.289062 -27.816406 23.914062 -28.046875 23.4375 -28.328125 C 22.957031 -28.617188 22.050781 -29.003906 20.71875 -29.484375 C 19.394531 -29.960938 18.164062 -30.203125 17.03125 -30.203125 C 15.613281 -30.203125 14.519531 -29.898438 13.75 -29.296875 C 12.976562 -28.703125 12.59375 -27.894531 12.59375 -26.875 C 12.59375 -26.351562 12.773438 -25.875 13.140625 -25.4375 C 13.503906 -25.007812 14.117188 -24.546875 14.984375 -24.046875 C 15.859375 -23.546875 16.625 -23.144531 17.28125 -22.84375 C 17.945312 -22.539062 18.972656 -22.09375 20.359375 -21.5 C 22.773438 -20.46875 24.832031 -19.070312 26.53125 -17.3125 C 28.226562 -15.550781 29.078125 -13.554688 29.078125 -11.328125 C 29.078125 -9.191406 28.691406 -7.328125 27.921875 -5.734375 C 27.160156 -4.140625 26.109375 -2.890625 24.765625 -1.984375 C 23.429688 -1.078125 21.945312 -0.410156 20.3125 0.015625 C 18.6875 0.453125 16.925781 0.671875 15.03125 0.671875 C 13.40625 0.671875 11.8125 0.503906 10.25 0.171875 C 8.6875 -0.148438 7.375 -0.5625 6.3125 -1.0625 C 5.257812 -1.5625 4.3125 -2.050781 3.46875 -2.53125 C 2.632812 -3.007812 2.019531 -3.414062 1.625 -3.75 L 1.03125 -4.25 L 5.28125 -11.375 C 5.644531 -11.070312 6.140625 -10.6875 6.765625 -10.21875 C 7.398438 -9.757812 8.519531 -9.140625 10.125 -8.359375 C 11.738281 -7.578125 13.164062 -7.1875 14.40625 -7.1875 C 17.988281 -7.1875 19.78125 -8.40625 19.78125 -10.84375 C 19.78125 -11.351562 19.648438 -11.828125 19.390625 -12.265625 C 19.140625 -12.703125 18.6875 -13.132812 18.03125 -13.5625 C 17.382812 -14 16.8125 -14.34375 16.3125 -14.59375 C 15.820312 -14.851562 15.007812 -15.25 13.875 -15.78125 C 12.75 -16.3125 11.914062 -16.710938 11.375 -16.984375 C 9.125 -18.097656 7.378906 -19.488281 6.140625 -21.15625 C 4.910156 -22.820312 4.296875 -24.617188 4.296875 -26.546875 C 4.296875 -29.890625 5.53125 -32.625 8 -34.75 C 10.46875 -36.875 13.28125 -37.9375 16.4375 -37.9375 Z M 16.4375 -37.9375 "/></g></g></g><g fill="#d9d9d9" fill-opacity="1"><g transform="translate(202.902513, 203.133738)"><g><path d="M 4.890625 -2.75 C 2.316406 -5.039062 1.03125 -7.976562 1.03125 -11.5625 C 1.03125 -15.144531 2.367188 -18.085938 5.046875 -20.390625 C 7.734375 -22.691406 11.046875 -23.84375 14.984375 -23.84375 C 18.867188 -23.84375 22.144531 -22.679688 24.8125 -20.359375 C 27.476562 -18.046875 28.8125 -15.113281 28.8125 -11.5625 C 28.8125 -8.007812 27.507812 -5.082031 24.90625 -2.78125 C 22.300781 -0.476562 18.992188 0.671875 14.984375 0.671875 C 10.835938 0.671875 7.472656 -0.46875 4.890625 -2.75 Z M 11.078125 -15.484375 C 10.046875 -14.460938 9.53125 -13.15625 9.53125 -11.5625 C 9.53125 -9.96875 10.023438 -8.664062 11.015625 -7.65625 C 12.015625 -6.644531 13.328125 -6.140625 14.953125 -6.140625 C 16.515625 -6.140625 17.796875 -6.648438 18.796875 -7.671875 C 19.804688 -8.703125 20.3125 -10 20.3125 -11.5625 C 20.3125 -13.15625 19.789062 -14.460938 18.75 -15.484375 C 17.71875 -16.515625 16.453125 -17.03125 14.953125 -17.03125 C 13.410156 -17.03125 12.117188 -16.515625 11.078125 -15.484375 Z M 11.078125 -15.484375 "/></g></g></g><g fill="#d9d9d9" fill-opacity="1"><g transform="translate(224.980582, 203.133738)"><g><path d="M 2.703125 0 L 2.703125 -38.828125 L 10.703125 -38.828125 L 10.703125 0 Z M 2.703125 0 "/></g></g></g><g fill="#d9d9d9" fill-opacity="1"><g transform="translate(230.623211, 203.133738)"><g><path d="M 10.25 -23.171875 L 10.25 -12.140625 C 10.25 -9.859375 10.59375 -8.234375 11.28125 -7.265625 C 11.976562 -6.304688 13.15625 -5.828125 14.8125 -5.828125 C 16.46875 -5.828125 17.640625 -6.304688 18.328125 -7.265625 C 19.023438 -8.234375 19.375 -9.859375 19.375 -12.140625 L 19.375 -23.171875 L 27.359375 -23.171875 L 27.359375 -10.203125 C 27.359375 -6.347656 26.359375 -3.570312 24.359375 -1.875 C 22.359375 -0.175781 19.175781 0.671875 14.8125 0.671875 C 10.445312 0.671875 7.257812 -0.175781 5.25 -1.875 C 3.25 -3.570312 2.25 -6.347656 2.25 -10.203125 L 2.25 -23.171875 Z M 10.25 -23.171875 "/></g></g></g><g fill="#d9d9d9" fill-opacity="1"><g transform="translate(252.475521, 203.133738)"><g><path d="M 4.0625 -23.171875 L 4.0625 -31.796875 L 12.0625 -31.796875 L 12.0625 -23.171875 L 16.9375 -23.171875 L 16.9375 -17.0625 L 12.0625 -17.0625 L 12.0625 -9.703125 C 12.0625 -7.566406 12.660156 -6.5 13.859375 -6.5 C 14.160156 -6.5 14.476562 -6.554688 14.8125 -6.671875 C 15.144531 -6.796875 15.398438 -6.921875 15.578125 -7.046875 L 15.84375 -7.21875 L 17.84375 -0.765625 C 16.125 0.191406 14.164062 0.671875 11.96875 0.671875 C 10.457031 0.671875 9.160156 0.410156 8.078125 -0.109375 C 6.992188 -0.640625 6.171875 -1.347656 5.609375 -2.234375 C 5.054688 -3.117188 4.660156 -4.050781 4.421875 -5.03125 C 4.179688 -6.007812 4.0625 -7.054688 4.0625 -8.171875 L 4.0625 -17.0625 L 0.71875 -17.0625 L 0.71875 -23.171875 Z M 4.0625 -23.171875 "/></g></g></g><g fill="#d9d9d9" fill-opacity="1"><g transform="translate(262.543071, 203.133738)"><g><path d="M 3.46875 -36.078125 C 4.40625 -37.015625 5.519531 -37.484375 6.8125 -37.484375 C 8.113281 -37.484375 9.226562 -37.015625 10.15625 -36.078125 C 11.09375 -35.148438 11.5625 -34.035156 11.5625 -32.734375 C 11.5625 -31.441406 11.09375 -30.328125 10.15625 -29.390625 C 9.226562 -28.460938 8.113281 -28 6.8125 -28 C 5.519531 -28 4.40625 -28.460938 3.46875 -29.390625 C 2.539062 -30.328125 2.078125 -31.441406 2.078125 -32.734375 C 2.078125 -34.035156 2.539062 -35.148438 3.46875 -36.078125 Z M 2.703125 -23.171875 L 2.703125 0 L 10.703125 0 L 10.703125 -23.171875 Z M 2.703125 -23.171875 "/></g></g></g><g fill="#d9d9d9" fill-opacity="1"><g transform="translate(268.411463, 203.133738)"><g><path d="M 4.890625 -2.75 C 2.316406 -5.039062 1.03125 -7.976562 1.03125 -11.5625 C 1.03125 -15.144531 2.367188 -18.085938 5.046875 -20.390625 C 7.734375 -22.691406 11.046875 -23.84375 14.984375 -23.84375 C 18.867188 -23.84375 22.144531 -22.679688 24.8125 -20.359375 C 27.476562 -18.046875 28.8125 -15.113281 28.8125 -11.5625 C 28.8125 -8.007812 27.507812 -5.082031 24.90625 -2.78125 C 22.300781 -0.476562 18.992188 0.671875 14.984375 0.671875 C 10.835938 0.671875 7.472656 -0.46875 4.890625 -2.75 Z M 11.078125 -15.484375 C 10.046875 -14.460938 9.53125 -13.15625 9.53125 -11.5625 C 9.53125 -9.96875 10.023438 -8.664062 11.015625 -7.65625 C 12.015625 -6.644531 13.328125 -6.140625 14.953125 -6.140625 C 16.515625 -6.140625 17.796875 -6.648438 18.796875 -7.671875 C 19.804688 -8.703125 20.3125 -10 20.3125 -11.5625 C 20.3125 -13.15625 19.789062 -14.460938 18.75 -15.484375 C 17.71875 -16.515625 16.453125 -17.03125 14.953125 -17.03125 C 13.410156 -17.03125 12.117188 -16.515625 11.078125 -15.484375 Z M 11.078125 -15.484375 "/></g></g></g><g fill="#d9d9d9" fill-opacity="1"><g transform="translate(290.48953, 203.133738)"><g><path d="M 2.703125 0 L 2.703125 -23.171875 L 10.703125 -23.171875 L 10.703125 -20.734375 L 10.796875 -20.734375 C 12.867188 -22.804688 15.082031 -23.84375 17.4375 -23.84375 C 18.570312 -23.84375 19.703125 -23.691406 20.828125 -23.390625 C 21.960938 -23.085938 23.050781 -22.617188 24.09375 -21.984375 C 25.132812 -21.359375 25.976562 -20.460938 26.625 -19.296875 C 27.269531 -18.140625 27.59375 -16.796875 27.59375 -15.265625 L 27.59375 0 L 19.59375 0 L 19.59375 -13.09375 C 19.59375 -14.300781 19.207031 -15.351562 18.4375 -16.25 C 17.675781 -17.15625 16.675781 -17.609375 15.4375 -17.609375 C 14.238281 -17.609375 13.148438 -17.140625 12.171875 -16.203125 C 11.191406 -15.273438 10.703125 -14.238281 10.703125 -13.09375 L 10.703125 0 Z M 2.703125 0 "/></g></g></g><g fill="#d9d9d9" fill-opacity="1"><g transform="translate(312.567596, 203.133738)"><g><path d="M 12.78125 -23.84375 C 14.101562 -23.84375 15.410156 -23.691406 16.703125 -23.390625 C 18.003906 -23.085938 18.96875 -22.785156 19.59375 -22.484375 L 20.546875 -22.03125 L 17.921875 -16.796875 C 16.117188 -17.765625 14.40625 -18.25 12.78125 -18.25 C 11.875 -18.25 11.234375 -18.148438 10.859375 -17.953125 C 10.484375 -17.753906 10.296875 -17.382812 10.296875 -16.84375 C 10.296875 -16.71875 10.3125 -16.59375 10.34375 -16.46875 C 10.375 -16.351562 10.429688 -16.242188 10.515625 -16.140625 C 10.609375 -16.035156 10.691406 -15.945312 10.765625 -15.875 C 10.835938 -15.800781 10.960938 -15.71875 11.140625 -15.625 C 11.328125 -15.53125 11.472656 -15.460938 11.578125 -15.421875 C 11.679688 -15.378906 11.851562 -15.3125 12.09375 -15.21875 C 12.34375 -15.125 12.523438 -15.054688 12.640625 -15.015625 C 12.765625 -14.972656 12.96875 -14.90625 13.25 -14.8125 C 13.539062 -14.71875 13.757812 -14.65625 13.90625 -14.625 C 14.84375 -14.351562 15.65625 -14.050781 16.34375 -13.71875 C 17.039062 -13.394531 17.769531 -12.945312 18.53125 -12.375 C 19.300781 -11.800781 19.894531 -11.078125 20.3125 -10.203125 C 20.738281 -9.328125 20.953125 -8.332031 20.953125 -7.21875 C 20.953125 -1.957031 17.296875 0.671875 9.984375 0.671875 C 8.328125 0.671875 6.753906 0.414062 5.265625 -0.09375 C 3.773438 -0.601562 2.695312 -1.113281 2.03125 -1.625 L 1.03125 -2.4375 L 4.296875 -7.90625 C 4.535156 -7.695312 4.847656 -7.445312 5.234375 -7.15625 C 5.628906 -6.875 6.335938 -6.484375 7.359375 -5.984375 C 8.378906 -5.484375 9.269531 -5.234375 10.03125 -5.234375 C 11.6875 -5.234375 12.515625 -5.789062 12.515625 -6.90625 C 12.515625 -7.414062 12.300781 -7.8125 11.875 -8.09375 C 11.457031 -8.382812 10.742188 -8.710938 9.734375 -9.078125 C 8.722656 -9.441406 7.929688 -9.769531 7.359375 -10.0625 C 5.910156 -10.820312 4.765625 -11.675781 3.921875 -12.625 C 3.085938 -13.570312 2.671875 -14.828125 2.671875 -16.390625 C 2.671875 -18.734375 3.578125 -20.5625 5.390625 -21.875 C 7.210938 -23.1875 9.675781 -23.84375 12.78125 -23.84375 Z M 12.78125 -23.84375 "/></g></g></g></svg>